<svg width="63" height="63" viewBox="0 0 63 63" fill="none" xmlns="http://www.w3.org/2000/svg">
<circle cx="31.5" cy="31.5" r="31.5" fill="url(#paint0_linear_10_99)"/>
<path d="M41.1612 22.2138C41.0312 21.32 40.8524 20.215 40.0074 19.3538C39.1462 18.5088 38.0412 18.33 37.1474 18.2C36.7737 18.1513 36.3999 18.0863 36.1724 17.9887C35.9774 17.9075 35.6849 17.68 35.3924 17.4688C34.6937 16.965 33.7512 16.25 32.4999 16.25C31.2487 16.25 30.3062 16.965 29.6074 17.485C29.3149 17.6963 29.0224 17.9238 28.8274 18.005C28.5999 18.0863 28.2262 18.1513 27.8524 18.2C26.9587 18.33 25.8537 18.5088 25.0087 19.3538C24.1474 20.215 23.9849 21.32 23.8387 22.2138C23.7899 22.5875 23.7249 22.9613 23.6437 23.1888C23.5624 23.3838 23.3349 23.6762 23.1237 23.9525C22.6037 24.6512 21.8887 25.61 21.8887 26.8612C21.8887 28.1125 22.6037 29.055 23.1237 29.7538C23.3349 30.0463 23.5624 30.3388 23.6437 30.5338C23.7412 30.7613 23.7899 31.135 23.8549 31.5088C23.9849 32.4025 24.1637 33.5075 25.0087 34.3688C25.8699 35.2138 26.9749 35.3925 27.8687 35.5225C28.2424 35.5713 28.6162 35.6363 28.8437 35.7338C29.0387 35.815 29.3312 36.0425 29.6237 36.2538C30.3224 36.7738 31.2649 37.4888 32.5162 37.4888C33.7674 37.4888 34.7099 36.7738 35.4087 36.2538C35.6849 36.0425 35.9937 35.815 36.1887 35.7338C36.4162 35.6363 36.7899 35.5875 37.1637 35.5225C38.0574 35.3925 39.1624 35.2138 40.0237 34.3688C40.8849 33.5238 41.0474 32.4025 41.1774 31.5088C41.2262 31.135 41.2912 30.7613 41.3887 30.5338C41.4699 30.3388 41.6974 30.0463 41.9087 29.7538C42.4287 29.055 43.1437 28.1125 43.1437 26.8612C43.1437 25.61 42.4287 24.6675 41.9087 23.9688C41.6974 23.6763 41.4699 23.3838 41.3887 23.1888C41.2749 22.9613 41.2099 22.5875 41.1612 22.2138ZM39.2762 27.8038C38.9512 28.2263 38.5937 28.7138 38.3662 29.2825C38.1224 29.8675 38.0249 30.485 37.9437 31.0213C37.8949 31.3625 37.8137 31.9313 37.6999 32.0613C37.5699 32.175 37.0012 32.2563 36.6599 32.305C36.1237 32.3863 35.5224 32.4838 34.9212 32.7275C34.3524 32.9713 33.8649 33.3288 33.4424 33.6375C33.1662 33.8488 32.6624 34.2225 32.4999 34.2225C32.3374 34.2225 31.8174 33.8488 31.5574 33.6375C31.1349 33.3125 30.6474 32.955 30.0787 32.7275C29.4937 32.4838 28.8762 32.3863 28.3399 32.305C27.9987 32.2563 27.4299 32.175 27.2999 32.0775C27.1862 31.9475 27.1049 31.3625 27.0562 31.0213C26.9749 30.485 26.8774 29.8838 26.6337 29.2825C26.4062 28.7138 26.0487 28.2263 25.7237 27.8038C25.5287 27.5275 25.1387 27.0238 25.1387 26.8612C25.1387 26.6988 25.5124 26.1788 25.7237 25.9188C26.0487 25.4963 26.4062 25.0088 26.6337 24.44C26.8774 23.8388 26.9749 23.2375 27.0562 22.7013C27.1049 22.36 27.2024 21.7913 27.2999 21.6613C27.4299 21.5475 27.9987 21.4662 28.3399 21.4175C28.8762 21.3363 29.4774 21.2388 30.0624 20.995C30.6312 20.7513 31.1187 20.3938 31.5412 20.085C31.8174 19.8738 32.3374 19.5 32.4999 19.5C32.6624 19.5 33.1824 19.8738 33.4424 20.085C33.8649 20.41 34.3524 20.7675 34.9212 20.995C35.5062 21.2388 36.1237 21.3363 36.6599 21.4175C37.0012 21.4662 37.5699 21.5475 37.6999 21.645C37.8137 21.775 37.8949 22.36 37.9437 22.7013C38.0249 23.2375 38.1224 23.8388 38.3662 24.44C38.6099 25.0088 38.9674 25.4963 39.2762 25.9188C39.4874 26.195 39.8612 26.6988 39.8612 26.8612C39.8612 27.0238 39.4712 27.5275 39.2762 27.8038Z" fill="white"/>
<path d="M17.4849 42.2012L23.1887 43.6312L24.8787 47.7424C25.0899 48.2462 25.5449 48.6199 26.0812 48.7174C26.6174 48.8149 27.1862 48.6362 27.5599 48.2299L32.4999 42.9974L37.4399 48.2462C37.7486 48.5712 38.1874 48.7499 38.6262 48.7499C38.7237 48.7499 38.8211 48.7337 38.9186 48.7174C39.4549 48.6199 39.9099 48.2462 40.1212 47.7424L41.8111 43.6312L47.5149 42.2012C48.1161 42.0549 48.5711 41.5837 48.7011 40.9824C48.8312 40.3812 48.6199 39.7637 48.1324 39.3737L43.3386 35.5062C42.6399 34.9374 41.6162 35.0512 41.0474 35.7499C40.4787 36.4487 40.5924 37.4724 41.2912 38.0412L43.5499 39.8612L40.2187 40.6899C39.7149 40.8199 39.3087 41.1774 39.1136 41.6487L38.0574 44.1999L33.6699 39.5362C33.0524 38.8862 31.9149 38.8862 31.2974 39.5362L26.9099 44.1999L25.8537 41.6487C25.6587 41.1774 25.2524 40.8199 24.7487 40.6899L21.4174 39.8612L23.6762 38.0412C24.3749 37.4724 24.4887 36.4487 23.9199 35.7499C23.3512 35.0512 22.3436 34.9374 21.6287 35.5062L16.8349 39.3737C16.3637 39.7637 16.1362 40.3812 16.2662 40.9824C16.3962 41.5837 16.8837 42.0549 17.4849 42.2012Z" fill="white"/>
<path d="M32.5 22.1326L31.1837 24.8138L27.625 25.3826L30.3712 27.3163L29.25 30.2576L32.5 28.8763L35.75 30.2576L34.6288 27.3163L37.375 25.3826L33.8163 24.8138L32.5 22.1326Z" fill="white"/>
<defs>
<linearGradient id="paint0_linear_10_99" x1="31.5" y1="0" x2="31.5" y2="63" gradientUnits="userSpaceOnUse">
<stop stop-color="#81EE92"/>
<stop offset="0.0001" stop-color="#7AF28D"/>
<stop offset="1" stop-color="#22B342"/>
</linearGradient>
</defs>
</svg>
