<svg width="63" height="63" viewBox="0 0 63 63" fill="none" xmlns="http://www.w3.org/2000/svg">
<circle cx="31.5" cy="31.5" r="31.5" fill="url(#paint0_linear_10_97)"/>
<g clip-path="url(#clip0_10_97)">
<path d="M44.7 18.767C44.593 18.317 44.189 18 43.728 18C43.726 18 43.724 18 43.722 18C38.455 18.033 25.647 18.916 20.476 26.38C17.79 30.258 17.559 35.293 19.789 41.345C19.806 41.392 19.841 41.424 19.864 41.467C19.067 43.44 18.758 44.753 18.75 44.79C18.634 45.33 18.979 45.862 19.519 45.978C19.589 45.993 19.659 46 19.729 46C20.19 46 20.605 45.679 20.706 45.21C20.727 45.108 23.275 34.837 32.283 28.832C32.743 28.526 32.867 27.905 32.56 27.445C32.253 26.985 31.633 26.86 31.173 27.168C26.065 30.573 22.919 35.176 21.069 38.824C19.745 34.246 20.092 30.447 22.121 27.519C26.114 21.755 35.585 20.365 41.302 20.071C40.072 21.872 38.728 25.174 38.728 31C38.728 34.12 37.843 36.522 36.099 38.14C33.303 40.731 28.761 40.974 25.439 40.724C24.887 40.679 24.408 41.095 24.366 41.646C24.324 42.196 24.737 42.676 25.287 42.718C25.952 42.769 26.662 42.8 27.4 42.8C30.782 42.8 34.727 42.137 37.458 39.606C39.628 37.595 40.728 34.7 40.728 31.001C40.728 21.902 44.158 19.905 44.175 19.896C44.591 19.687 44.809 19.219 44.7 18.767Z" fill="white"/>
</g>
<defs>
<linearGradient id="paint0_linear_10_97" x1="31.5" y1="0" x2="31.5" y2="63" gradientUnits="userSpaceOnUse">
<stop stop-color="#81EE92"/>
<stop offset="0.0001" stop-color="#7AF28D"/>
<stop offset="1" stop-color="#22B342"/>
</linearGradient>
<clipPath id="clip0_10_97">
<rect width="32" height="32" fill="white" transform="translate(15 16)"/>
</clipPath>
</defs>
</svg>
