<svg width="63" height="63" viewBox="0 0 63 63" fill="none" xmlns="http://www.w3.org/2000/svg">
<circle cx="31.5" cy="31.5" r="31.5" fill="url(#paint0_linear_10_94)"/>
<path d="M21 25H41" stroke="white" stroke-width="2" stroke-miterlimit="10" stroke-linecap="round" stroke-linejoin="round"/>
<path d="M27.875 20.125L26.375 14.875C29.25 13.375 32.75 13.375 35.625 14.875L34.125 20.125" stroke="white" stroke-width="2" stroke-miterlimit="10" stroke-linecap="round" stroke-linejoin="round"/>
<path d="M35.375 16.125C37.875 17.625 39.5 20.375 39.5 23.5V25" stroke="white" stroke-width="2" stroke-miterlimit="10" stroke-linecap="round" stroke-linejoin="round"/>
<path d="M22.5 25V23.5C22.5 20.375 24.125 17.625 26.625 16.125" stroke="white" stroke-width="2" stroke-miterlimit="10" stroke-linecap="round" stroke-linejoin="round"/>
<path d="M38 39.25C35.75 38.625 34.125 36.375 34.125 33.75C35.75 32.75 36.75 30.875 37.125 28.75C34.375 28.75 32 27.25 30.75 25H24.75V27.5C24.75 30.125 25.875 32.5 27.875 33.75C27.875 36.375 26.25 38.625 23.875 39.25C21.125 40 19.125 42.5 18.5 45.5C18.5 45.875 18.75 46.25 19.125 46.25H43C43.375 46.25 43.625 45.875 43.5 45.5C42.875 42.375 40.75 40 38 39.25Z" stroke="white" stroke-width="2" stroke-miterlimit="10" stroke-linejoin="round"/>
<defs>
<linearGradient id="paint0_linear_10_94" x1="31.5" y1="0" x2="31.5" y2="63" gradientUnits="userSpaceOnUse">
<stop stop-color="#81EE92"/>
<stop offset="0.0001" stop-color="#7AF28D"/>
<stop offset="1" stop-color="#22B342"/>
</linearGradient>
</defs>
</svg>
