<svg width="63" height="63" viewBox="0 0 63 63" fill="none" xmlns="http://www.w3.org/2000/svg">
<circle cx="31.5" cy="31.5" r="31.5" fill="url(#paint0_linear_10_96)"/>
<path d="M21.3125 47.4375C23.9359 47.4375 26.0625 45.3109 26.0625 42.6875C26.0625 40.0641 23.9359 37.9375 21.3125 37.9375C18.6891 37.9375 16.5625 40.0641 16.5625 42.6875C16.5625 45.3109 18.6891 47.4375 21.3125 47.4375Z" stroke="white" stroke-width="2" stroke-miterlimit="10" stroke-linecap="round" stroke-linejoin="round"/>
<path d="M37.9375 47.4375C40.5609 47.4375 42.6875 45.3109 42.6875 42.6875C42.6875 40.0641 40.5609 37.9375 37.9375 37.9375C35.3141 37.9375 33.1875 40.0641 33.1875 42.6875C33.1875 45.3109 35.3141 47.4375 37.9375 47.4375Z" stroke="white" stroke-width="2" stroke-miterlimit="10" stroke-linecap="round" stroke-linejoin="round"/>
<path d="M36.75 38.0563V30.8125V27.25V23.6875L43.875 22.5V20.125H33.1875L29.625 27.25H16.5625V33.1875L21.3125 37.9375" stroke="white" stroke-width="2" stroke-miterlimit="10" stroke-linecap="round" stroke-linejoin="round"/>
<path d="M25.4688 40.3125H33.7812" stroke="white" stroke-width="2" stroke-miterlimit="10" stroke-linecap="round" stroke-linejoin="round"/>
<path d="M42.5687 41.5H47.4375V34.375L42.6875 27.25H36.75V38.0563" stroke="white" stroke-width="2" stroke-miterlimit="10" stroke-linecap="round" stroke-linejoin="round"/>
<path d="M21.3125 33.1875H33.1875" stroke="white" stroke-width="2" stroke-miterlimit="10" stroke-linecap="round" stroke-linejoin="round"/>
<path d="M36.75 32H40.3125C41.025 33.425 42.5688 34.375 44.1125 34.375H47.4375" stroke="white" stroke-width="2" stroke-miterlimit="10" stroke-linecap="round" stroke-linejoin="round"/>
<defs>
<linearGradient id="paint0_linear_10_96" x1="31.5" y1="0" x2="31.5" y2="63" gradientUnits="userSpaceOnUse">
<stop stop-color="#81EE92"/>
<stop offset="0.0001" stop-color="#7AF28D"/>
<stop offset="1" stop-color="#22B342"/>
</linearGradient>
</defs>
</svg>
