<svg width="63" height="63" viewBox="0 0 63 63" fill="none" xmlns="http://www.w3.org/2000/svg">
<circle cx="31.5" cy="31.5" r="31.5" fill="url(#paint0_linear_10_95)"/>
<g clip-path="url(#clip0_10_95)">
<path d="M34.25 46.625H20.75C18.95 46.625 17.375 45.1625 17.375 43.25C17.375 41.45 18.8375 39.875 20.75 39.875H34.25C36.05 39.875 37.625 41.3375 37.625 43.25C37.625 45.1625 36.1625 46.625 34.25 46.625Z" stroke="white" stroke-width="2" stroke-miterlimit="10" stroke-linecap="round" stroke-linejoin="round"/>
<path d="M30.875 26.375H26.375V32H23C20.525 32 18.5 34.025 18.5 36.5H26.375H35.375V34.25V32L30.875 26.375Z" stroke="white" stroke-width="2" stroke-miterlimit="10" stroke-linecap="round" stroke-linejoin="round"/>
<path d="M38.75 32L46.625 29.75L46.0625 32.675C45.725 34.25 44.375 35.375 42.8 35.375C41.675 35.375 40.6625 34.8125 39.9875 33.9125L38.75 32Z" stroke="white" stroke-width="2" stroke-miterlimit="10" stroke-linecap="round" stroke-linejoin="round"/>
<path d="M46.625 29.75L41 17.375H33.125L26.375 26.375H30.875L33.125 17.375" stroke="white" stroke-width="2" stroke-miterlimit="10" stroke-linecap="round" stroke-linejoin="round"/>
<path d="M43.25 29.75L37.625 17.375" stroke="white" stroke-width="2" stroke-miterlimit="10" stroke-linecap="round" stroke-linejoin="round"/>
<path d="M38.75 29.75V32" stroke="white" stroke-width="2" stroke-miterlimit="10" stroke-linecap="round" stroke-linejoin="round"/>
<path d="M26.375 29.75H29.4125C29.975 31.1 31.325 32 32.675 32H35.375" stroke="white" stroke-width="2" stroke-miterlimit="10" stroke-linecap="round" stroke-linejoin="round"/>
</g>
<defs>
<linearGradient id="paint0_linear_10_95" x1="31.5" y1="0" x2="31.5" y2="63" gradientUnits="userSpaceOnUse">
<stop stop-color="#81EE92"/>
<stop offset="0.0001" stop-color="#7AF28D"/>
<stop offset="1" stop-color="#22B342"/>
</linearGradient>
<clipPath id="clip0_10_95">
<rect width="36" height="36" fill="white" transform="translate(14 14)"/>
</clipPath>
</defs>
</svg>
