<svg width="40" height="40" viewBox="0 0 40 40" fill="none" xmlns="http://www.w3.org/2000/svg">
<path d="M31.6667 5H8.33333C6.5 5 5 6.5 5 8.33333V31.6667C5 33.5 6.5 35 8.33333 35H31.6667C33.5 35 35 33.5 35 31.6667V8.33333C35 6.5 33.5 5 31.6667 5ZM31.6667 31.6667H8.33333V8.33333H31.6667V31.6667Z" fill="white"/>
<path d="M18.75 12.8667H10.4167V15.3667H18.75V12.8667Z" fill="white"/>
<path d="M30 26.25H21.6667V28.75H30V26.25Z" fill="white"/>
<path d="M30 22.0833H21.6667V24.5833H30V22.0833Z" fill="white"/>
<path d="M13.3333 30H15.8333V26.6667H19.1667V24.1667H15.8333V20.8333H13.3333V24.1667H10V26.6667H13.3333V30Z" fill="white"/>
<path d="M23.4833 18.25L25.8333 15.9L28.1833 18.25L29.95 16.4833L27.6 14.1167L29.95 11.7667L28.1833 10L25.8333 12.35L23.4833 10L21.7167 11.7667L24.0667 14.1167L21.7167 16.4833L23.4833 18.25Z" fill="white"/>
</svg>
