<svg width="22" height="22" viewBox="0 0 22 22" fill="none" xmlns="http://www.w3.org/2000/svg">
<path d="M10.9999 1.83334C9.18693 1.83334 7.41465 2.37095 5.9072 3.3782C4.39974 4.38544 3.22483 5.81708 2.53103 7.49207C1.83722 9.16706 1.65569 11.0102 2.00939 12.7883C2.36309 14.5665 3.23613 16.1998 4.51811 17.4818C5.80009 18.7638 7.43344 19.6368 9.2116 19.9905C10.9898 20.3442 12.8329 20.1627 14.5079 19.4689C16.1828 18.7751 17.6145 17.6002 18.6217 16.0927C19.629 14.5853 20.1666 12.813 20.1666 11C20.1666 9.79622 19.9295 8.60422 19.4688 7.49207C19.0082 6.37992 18.3329 5.36939 17.4817 4.51819C16.6305 3.66699 15.62 2.99177 14.5079 2.53111C13.3957 2.07044 12.2037 1.83334 10.9999 1.83334ZM10.9999 18.3333C9.54953 18.3333 8.1317 17.9032 6.92574 17.0974C5.71978 16.2916 4.77985 15.1463 4.22481 13.8063C3.66976 12.4664 3.52454 10.9919 3.8075 9.56934C4.09046 8.14681 4.78889 6.84014 5.81447 5.81455C6.84006 4.78897 8.14673 4.09054 9.56926 3.80758C10.9918 3.52462 12.4663 3.66984 13.8063 4.22489C15.1463 4.77993 16.2916 5.71986 17.0974 6.92582C17.9032 8.13178 18.3333 9.54961 18.3333 11C18.3333 12.9449 17.5606 14.8102 16.1854 16.1855C14.8101 17.5607 12.9448 18.3333 10.9999 18.3333ZM12.9249 8.8275L11.9166 9.41417V6.41667C11.9166 6.17355 11.82 5.9404 11.6481 5.76849C11.4762 5.59658 11.243 5.5 10.9999 5.5C10.7568 5.5 10.5237 5.59658 10.3517 5.76849C10.1798 5.9404 10.0833 6.17355 10.0833 6.41667V11C10.0833 11 10.0833 11 10.0833 11.055C10.0789 11.116 10.0789 11.1773 10.0833 11.2383C10.0974 11.2946 10.1158 11.3498 10.1383 11.4033C10.1383 11.4033 10.1383 11.4033 10.1383 11.4583C10.182 11.5234 10.2311 11.5847 10.2849 11.6417C10.359 11.7151 10.446 11.7741 10.5416 11.8158H10.6149C10.7343 11.8772 10.8658 11.9117 10.9999 11.9167C11.1068 11.9136 11.2122 11.8919 11.3116 11.8525H11.3941H11.4583L13.8416 10.4775C14.0531 10.3559 14.2077 10.1553 14.2713 9.91983C14.3349 9.68431 14.3023 9.43318 14.1808 9.22167C14.0592 9.01016 13.8586 8.8556 13.6231 8.79199C13.3876 8.72839 13.1364 8.76094 12.9249 8.8825V8.8275Z" fill="black"/>
</svg>
