<svg width="136" height="136" viewBox="0 0 136 136" fill="none" xmlns="http://www.w3.org/2000/svg">
<circle cx="68" cy="68" r="67.5" stroke="white" stroke-opacity="0.46"/>
<g filter="url(#filter0_b_74_33)">
<circle cx="68" cy="68" r="56" fill="white" fill-opacity="0.44"/>
</g>
<circle cx="68" cy="68" r="48.5" stroke="#81EE92"/>
<path d="M48.88 53.84C51.0667 53.84 52.8133 54.04 54.12 54.44C55.4533 54.8133 56.4133 55.4667 57 56.4C57.6133 57.3333 57.92 58.6267 57.92 60.28C57.92 61.56 57.8 62.6933 57.56 63.68C57.32 64.64 56.8933 65.4267 56.28 66.04C55.6667 66.6533 54.7867 67.0533 53.64 67.24V67.4C55.5333 67.6933 56.84 68.4133 57.56 69.56C58.28 70.7067 58.6533 72.2933 58.68 74.32C58.7067 76.24 58.4133 77.8133 57.8 79.04C57.1867 80.24 56.1733 81.1333 54.76 81.72C53.3733 82.28 51.5067 82.56 49.16 82.56C47.56 82.56 45.9467 82.48 44.32 82.32C42.6933 82.1867 41.12 82.0133 39.6 81.8L39.84 77.32C40.9067 77.4 41.8533 77.4667 42.68 77.52C43.5333 77.5467 44.3467 77.5733 45.12 77.6C45.8933 77.6267 46.68 77.64 47.48 77.64C48.7867 77.64 49.8133 77.5333 50.56 77.32C51.3067 77.08 51.84 76.6667 52.16 76.08C52.48 75.4667 52.64 74.6133 52.64 73.52C52.64 72.6667 52.52 71.96 52.28 71.4C52.0667 70.8133 51.6533 70.3733 51.04 70.08C50.4267 69.76 49.5333 69.6133 48.36 69.64L43.12 69.68V65.64H48.36C49.24 65.64 49.9333 65.5467 50.44 65.36C50.9467 65.1467 51.32 64.88 51.56 64.56C51.8267 64.2133 52 63.8133 52.08 63.36C52.16 62.9067 52.2 62.4133 52.2 61.88C52.1733 61 52.0267 60.3333 51.76 59.88C51.52 59.4267 51.08 59.12 50.44 58.96C49.8267 58.8 48.96 58.72 47.84 58.72C46.4533 58.72 45.1067 58.7467 43.8 58.8C42.52 58.8267 41.3867 58.8533 40.4 58.88L40.12 54.6C41.6133 54.3333 43.08 54.1467 44.52 54.04C45.9867 53.9067 47.44 53.84 48.88 53.84ZM68.8953 53.84C70.602 53.84 71.962 54.1067 72.9753 54.64C73.9886 55.1467 74.7086 56 75.1353 57.2C75.562 58.4 75.7753 60.0267 75.7753 62.08C75.7753 64.1067 75.562 65.72 75.1353 66.92C74.7086 68.12 73.9886 68.9867 72.9753 69.52C71.962 70.0533 70.602 70.32 68.8953 70.32C67.2153 70.32 65.8686 70.0533 64.8553 69.52C63.8686 68.9867 63.1486 68.12 62.6953 66.92C62.2686 65.72 62.0553 64.1067 62.0553 62.08C62.0553 60.0267 62.2686 58.4 62.6953 57.2C63.1486 56 63.8686 55.1467 64.8553 54.64C65.8686 54.1067 67.2153 53.84 68.8953 53.84ZM68.8953 57.12C68.2553 57.12 67.762 57.2533 67.4153 57.52C67.0686 57.7867 66.8153 58.28 66.6553 59C66.522 59.6933 66.4553 60.72 66.4553 62.08C66.4553 63.44 66.522 64.48 66.6553 65.2C66.8153 65.8933 67.0686 66.3733 67.4153 66.64C67.762 66.9067 68.2553 67.04 68.8953 67.04C69.562 67.04 70.0686 66.9067 70.4153 66.64C70.762 66.3733 71.002 65.8933 71.1353 65.2C71.2953 64.48 71.3753 63.44 71.3753 62.08C71.3753 60.72 71.2953 59.6933 71.1353 59C71.002 58.28 70.762 57.7867 70.4153 57.52C70.0686 57.2533 69.562 57.12 68.8953 57.12ZM88.9353 54.4L72.4153 82H68.6953L85.2153 54.4H88.9353ZM88.7753 66.04C90.482 66.04 91.8286 66.3067 92.8153 66.84C93.8286 67.3467 94.5486 68.2 94.9753 69.4C95.402 70.5733 95.6153 72.1867 95.6153 74.24C95.6153 76.2667 95.402 77.8933 94.9753 79.12C94.5486 80.32 93.8286 81.1867 92.8153 81.72C91.8286 82.2267 90.482 82.48 88.7753 82.48C87.0953 82.48 85.7486 82.2267 84.7353 81.72C83.7486 81.1867 83.0286 80.32 82.5753 79.12C82.1486 77.8933 81.9353 76.2667 81.9353 74.24C81.9353 72.1867 82.1486 70.5733 82.5753 69.4C83.0286 68.2 83.7486 67.3467 84.7353 66.84C85.7486 66.3067 87.0953 66.04 88.7753 66.04ZM88.7353 69.32C88.0953 69.32 87.5886 69.4533 87.2153 69.72C86.8686 69.96 86.6286 70.44 86.4953 71.16C86.362 71.8533 86.2953 72.88 86.2953 74.24C86.2953 75.6 86.362 76.64 86.4953 77.36C86.6286 78.08 86.8686 78.5733 87.2153 78.84C87.5886 79.08 88.0953 79.2 88.7353 79.2C89.402 79.2 89.9086 79.08 90.2553 78.84C90.602 78.5733 90.8553 78.08 91.0153 77.36C91.1753 76.64 91.2553 75.6 91.2553 74.24C91.2553 72.88 91.1753 71.8533 91.0153 71.16C90.8553 70.44 90.602 69.96 90.2553 69.72C89.9086 69.4533 89.402 69.32 88.7353 69.32Z" fill="white"/>
<defs>
<filter id="filter0_b_74_33" x="-14" y="-14" width="164" height="164" filterUnits="userSpaceOnUse" color-interpolation-filters="sRGB">
<feFlood flood-opacity="0" result="BackgroundImageFix"/>
<feGaussianBlur in="BackgroundImageFix" stdDeviation="13"/>
<feComposite in2="SourceAlpha" operator="in" result="effect1_backgroundBlur_74_33"/>
<feBlend mode="normal" in="SourceGraphic" in2="effect1_backgroundBlur_74_33" result="shape"/>
</filter>
</defs>
</svg>
