<svg width="96" height="96" viewBox="0 0 96 96" fill="none" xmlns="http://www.w3.org/2000/svg">
<circle cx="48" cy="48" r="47.6471" stroke="white" stroke-opacity="0.46" stroke-width="0.705882"/>
<g filter="url(#filter0_b_316_1172)">
<circle cx="48.0001" cy="48.0001" r="39.5294" fill="white" fill-opacity="0.44"/>
</g>
<circle cx="48.0001" cy="47.9999" r="34.2353" stroke="#81EE92" stroke-width="0.705882"/>
<path d="M40.6588 38.1646L40.5176 41.4117H32.4141L32.1882 45.0823L35.04 45.3929C36.2258 45.5058 37.2141 45.7317 38.0047 46.0705C38.8141 46.4093 39.4541 46.8517 39.9247 47.3976C40.3953 47.9434 40.7341 48.574 40.9411 49.2893C41.1482 50.0046 41.2517 50.8046 41.2517 51.6893C41.2517 52.5364 41.1482 53.3458 40.9411 54.1176C40.7341 54.8705 40.3764 55.5387 39.8682 56.1223C39.3788 56.7058 38.6917 57.167 37.807 57.5058C36.9223 57.8258 35.7929 57.9858 34.4188 57.9858C33.5153 57.9858 32.4894 57.9293 31.3411 57.8164C30.2117 57.7223 29.0635 57.5811 27.8964 57.3929L28.2917 54.0893C29.2141 54.1834 30.1082 54.2681 30.9741 54.3434C31.8588 54.3999 32.64 54.4281 33.3176 54.4281C34.3153 54.4281 35.0682 54.3246 35.5764 54.1176C36.0847 53.9105 36.4329 53.5999 36.6211 53.1858C36.8282 52.7529 36.9505 52.2164 36.9882 51.5764C37.007 50.9552 36.9317 50.4658 36.7623 50.1081C36.6117 49.7317 36.3482 49.4399 35.9717 49.2329C35.6141 49.0258 35.1341 48.8846 34.5317 48.8093C33.9482 48.7152 33.2235 48.6399 32.3576 48.5834L29.9294 48.3011C29.5341 48.2446 29.2141 48.0846 28.9694 47.8211C28.7247 47.5387 28.6117 47.1999 28.6305 46.8046L29.1105 38.1646H40.6588ZM48.1908 37.7693C49.3955 37.7693 50.3555 37.9576 51.0708 38.334C51.7861 38.6917 52.2943 39.294 52.5955 40.1411C52.8966 40.9881 53.0472 42.1364 53.0472 43.5858C53.0472 45.0164 52.8966 46.1552 52.5955 47.0023C52.2943 47.8493 51.7861 48.4611 51.0708 48.8376C50.3555 49.214 49.3955 49.4023 48.1908 49.4023C47.0049 49.4023 46.0543 49.214 45.339 48.8376C44.6425 48.4611 44.1343 47.8493 43.8143 47.0023C43.5131 46.1552 43.3625 45.0164 43.3625 43.5858C43.3625 42.1364 43.5131 40.9881 43.8143 40.1411C44.1343 39.294 44.6425 38.6917 45.339 38.334C46.0543 37.9576 47.0049 37.7693 48.1908 37.7693ZM48.1908 40.0846C47.739 40.0846 47.3908 40.1787 47.1461 40.367C46.9014 40.5552 46.7225 40.9034 46.6096 41.4117C46.5155 41.9011 46.4684 42.6258 46.4684 43.5858C46.4684 44.5458 46.5155 45.2799 46.6096 45.7881C46.7225 46.2776 46.9014 46.6164 47.1461 46.8046C47.3908 46.9929 47.739 47.087 48.1908 47.087C48.6614 47.087 49.019 46.9929 49.2637 46.8046C49.5084 46.6164 49.6778 46.2776 49.7719 45.7881C49.8849 45.2799 49.9414 44.5458 49.9414 43.5858C49.9414 42.6258 49.8849 41.9011 49.7719 41.4117C49.6778 40.9034 49.5084 40.5552 49.2637 40.367C49.019 40.1787 48.6614 40.0846 48.1908 40.0846ZM62.3366 38.1646L50.6755 57.647H48.0496L59.7108 38.1646H62.3366ZM62.2237 46.3811C63.4284 46.3811 64.379 46.5693 65.0755 46.9458C65.7908 47.3034 66.299 47.9058 66.6002 48.7529C66.9014 49.5811 67.0519 50.7199 67.0519 52.1693C67.0519 53.5999 66.9014 54.7481 66.6002 55.614C66.299 56.4611 65.7908 57.0729 65.0755 57.4493C64.379 57.807 63.4284 57.9858 62.2237 57.9858C61.0378 57.9858 60.0872 57.807 59.3719 57.4493C58.6755 57.0729 58.1672 56.4611 57.8472 55.614C57.5461 54.7481 57.3955 53.5999 57.3955 52.1693C57.3955 50.7199 57.5461 49.5811 57.8472 48.7529C58.1672 47.9058 58.6755 47.3034 59.3719 46.9458C60.0872 46.5693 61.0378 46.3811 62.2237 46.3811ZM62.1955 48.6964C61.7437 48.6964 61.3861 48.7905 61.1225 48.9787C60.8778 49.1481 60.7084 49.487 60.6143 49.9952C60.5202 50.4846 60.4731 51.2093 60.4731 52.1693C60.4731 53.1293 60.5202 53.8634 60.6143 54.3717C60.7084 54.8799 60.8778 55.2281 61.1225 55.4164C61.3861 55.5858 61.7437 55.6705 62.1955 55.6705C62.6661 55.6705 63.0237 55.5858 63.2684 55.4164C63.5131 55.2281 63.6919 54.8799 63.8049 54.3717C63.9178 53.8634 63.9743 53.1293 63.9743 52.1693C63.9743 51.2093 63.9178 50.4846 63.8049 49.9952C63.6919 49.487 63.5131 49.1481 63.2684 48.9787C63.0237 48.7905 62.6661 48.6964 62.1955 48.6964Z" fill="white"/>
<defs>
<filter id="filter0_b_316_1172" x="-9.88224" y="-9.88224" width="115.765" height="115.764" filterUnits="userSpaceOnUse" color-interpolation-filters="sRGB">
<feFlood flood-opacity="0" result="BackgroundImageFix"/>
<feGaussianBlur in="BackgroundImageFix" stdDeviation="9.17647"/>
<feComposite in2="SourceAlpha" operator="in" result="effect1_backgroundBlur_316_1172"/>
<feBlend mode="normal" in="SourceGraphic" in2="effect1_backgroundBlur_316_1172" result="shape"/>
</filter>
</defs>
</svg>
