<svg width="130" height="130" viewBox="0 0 130 130" fill="none" xmlns="http://www.w3.org/2000/svg">
<circle cx="65" cy="65" r="64.5221" stroke="black" stroke-opacity="0.46" stroke-width="0.955882"/>
<g filter="url(#filter0_b_257_126)">
<circle cx="65.0001" cy="65.0001" r="53.5294" fill="black" fill-opacity="0.44"/>
</g>
<circle cx="64.9999" cy="65.0001" r="46.3603" stroke="#81EE92" stroke-width="0.955882"/>
<path d="M46.7237 51.2293C48.8139 51.2293 50.4835 51.4205 51.7326 51.8029C53.0071 52.1597 53.9247 52.7842 54.4855 53.6764C55.0718 54.5685 55.3649 55.8048 55.3649 57.3852C55.3649 58.6087 55.2502 59.6921 55.0208 60.6352C54.7914 61.5529 54.3835 62.3048 53.7973 62.8911C53.211 63.4774 52.3698 63.8597 51.2737 64.0381V64.1911C53.0835 64.4715 54.3326 65.1597 55.0208 66.2558C55.709 67.3519 56.0659 68.8685 56.0914 70.8058C56.1169 72.6411 55.8365 74.145 55.2502 75.3176C54.6639 76.4646 53.6953 77.3185 52.3443 77.8793C51.0188 78.4146 49.2345 78.6823 46.9914 78.6823C45.462 78.6823 43.9198 78.6058 42.3649 78.4529C40.81 78.3254 39.3061 78.1597 37.8531 77.9558L38.0826 73.6734C39.1022 73.7499 40.0071 73.8136 40.7973 73.8646C41.6129 73.8901 42.3904 73.9156 43.1296 73.9411C43.8688 73.9666 44.6208 73.9793 45.3855 73.9793C46.6345 73.9793 47.6159 73.8774 48.3296 73.6734C49.0433 73.444 49.5531 73.0489 49.859 72.4881C50.1649 71.9019 50.3178 71.0862 50.3178 70.0411C50.3178 69.2254 50.2031 68.5499 49.9737 68.0146C49.7698 67.4538 49.3747 67.0332 48.7884 66.7529C48.2022 66.447 47.3482 66.3068 46.2267 66.3323L41.2178 66.3705V62.5087H46.2267C47.0678 62.5087 47.7306 62.4195 48.2149 62.2411C48.6992 62.0372 49.0561 61.7823 49.2855 61.4764C49.5404 61.145 49.7061 60.7627 49.7826 60.3293C49.859 59.896 49.8973 59.4244 49.8973 58.9146C49.8718 58.0734 49.7316 57.4362 49.4767 57.0029C49.2473 56.5695 48.8267 56.2764 48.2149 56.1234C47.6286 55.9705 46.8002 55.894 45.7296 55.894C44.4041 55.894 43.1169 55.9195 41.8678 55.9705C40.6443 55.996 39.561 56.0215 38.6178 56.047L38.3502 51.9558C39.7777 51.7009 41.1796 51.5225 42.5561 51.4205C43.958 51.293 45.3473 51.2293 46.7237 51.2293ZM65.856 51.2293C67.4874 51.2293 68.7874 51.4842 69.756 51.994C70.7246 52.4783 71.4129 53.294 71.8207 54.4411C72.2286 55.5881 72.4325 57.143 72.4325 59.1058C72.4325 61.0431 72.2286 62.5852 71.8207 63.7323C71.4129 64.8793 70.7246 65.7078 69.756 66.2176C68.7874 66.7274 67.4874 66.9823 65.856 66.9823C64.2501 66.9823 62.9629 66.7274 61.9942 66.2176C61.0511 65.7078 60.3629 64.8793 59.9295 63.7323C59.5217 62.5852 59.3178 61.0431 59.3178 59.1058C59.3178 57.143 59.5217 55.5881 59.9295 54.4411C60.3629 53.294 61.0511 52.4783 61.9942 51.994C62.9629 51.4842 64.2501 51.2293 65.856 51.2293ZM65.856 54.3646C65.2442 54.3646 64.7727 54.4921 64.4413 54.747C64.1099 55.0019 63.8678 55.4734 63.7148 56.1617C63.5874 56.8244 63.5237 57.8058 63.5237 59.1058C63.5237 60.4058 63.5874 61.3999 63.7148 62.0881C63.8678 62.7509 64.1099 63.2097 64.4413 63.4646C64.7727 63.7195 65.2442 63.847 65.856 63.847C66.4933 63.847 66.9776 63.7195 67.309 63.4646C67.6403 63.2097 67.8697 62.7509 67.9972 62.0881C68.1501 61.3999 68.2266 60.4058 68.2266 59.1058C68.2266 57.8058 68.1501 56.8244 67.9972 56.1617C67.8697 55.4734 67.6403 55.0019 67.309 54.747C66.9776 54.4921 66.4933 54.3646 65.856 54.3646ZM85.0119 51.7646L69.2207 78.147H65.6648L81.456 51.7646H85.0119ZM84.859 62.8911C86.4903 62.8911 87.7776 63.146 88.7207 63.6558C89.6893 64.1401 90.3776 64.9558 90.7854 66.1029C91.1933 67.2244 91.3972 68.7666 91.3972 70.7293C91.3972 72.6666 91.1933 74.2215 90.7854 75.394C90.3776 76.5411 89.6893 77.3695 88.7207 77.8793C87.7776 78.3636 86.4903 78.6058 84.859 78.6058C83.2531 78.6058 81.9658 78.3636 80.9972 77.8793C80.0541 77.3695 79.3658 76.5411 78.9325 75.394C78.5246 74.2215 78.3207 72.6666 78.3207 70.7293C78.3207 68.7666 78.5246 67.2244 78.9325 66.1029C79.3658 64.9558 80.0541 64.1401 80.9972 63.6558C81.9658 63.146 83.2531 62.8911 84.859 62.8911ZM84.8207 66.0264C84.209 66.0264 83.7246 66.1538 83.3678 66.4087C83.0364 66.6381 82.807 67.097 82.6795 67.7852C82.5521 68.448 82.4884 69.4293 82.4884 70.7293C82.4884 72.0293 82.5521 73.0234 82.6795 73.7117C82.807 74.3999 83.0364 74.8715 83.3678 75.1264C83.7246 75.3558 84.209 75.4705 84.8207 75.4705C85.458 75.4705 85.9423 75.3558 86.2737 75.1264C86.605 74.8715 86.8472 74.3999 87.0001 73.7117C87.1531 73.0234 87.2295 72.0293 87.2295 70.7293C87.2295 69.4293 87.1531 68.448 87.0001 67.7852C86.8472 67.097 86.605 66.6381 86.2737 66.4087C85.9423 66.1538 85.458 66.0264 84.8207 66.0264Z" fill="white"/>
<defs>
<filter id="filter0_b_257_126" x="-13.3822" y="-13.3822" width="156.764" height="156.765" filterUnits="userSpaceOnUse" color-interpolation-filters="sRGB">
<feFlood flood-opacity="0" result="BackgroundImageFix"/>
<feGaussianBlur in="BackgroundImageFix" stdDeviation="12.4265"/>
<feComposite in2="SourceAlpha" operator="in" result="effect1_backgroundBlur_257_126"/>
<feBlend mode="normal" in="SourceGraphic" in2="effect1_backgroundBlur_257_126" result="shape"/>
</filter>
</defs>
</svg>
