<svg width="18" height="20" viewBox="0 0 18 20" fill="none" xmlns="http://www.w3.org/2000/svg">
<path d="M12.8908 12.5395C12.5131 12.5395 12.207 12.2334 12.207 11.8557V11.5597C12.207 11.1821 12.5131 10.876 12.8908 10.876C13.2684 10.876 13.5746 11.1821 13.5746 11.5597V11.8557C13.5746 12.2334 13.2684 12.5395 12.8908 12.5395Z" fill="#84C551"/>
<path d="M9.79948 13.6505H4.1447C3.76705 13.6505 3.46094 13.3444 3.46094 12.9667C3.46094 12.5891 3.76705 12.283 4.1447 12.283H9.79948C10.1771 12.283 10.4832 12.5891 10.4832 12.9667C10.4832 13.3444 10.1771 13.6505 9.79948 13.6505Z" fill="#84C551"/>
<path d="M9.79948 16.8492H4.1447C3.76705 16.8492 3.46094 16.5431 3.46094 16.1655C3.46094 15.7878 3.76705 15.4817 4.1447 15.4817H9.79948C10.1771 15.4817 10.4832 15.7878 10.4832 16.1655C10.4832 16.5431 10.1771 16.8492 9.79948 16.8492Z" fill="#84C551"/>
<path d="M3.45975 9.81076C3.45975 10.1884 3.76586 10.4945 4.14351 10.4945H9.79829C10.0685 10.4945 10.3014 10.3374 10.4124 10.1099C11.0209 10.3569 11.6857 10.4933 12.3819 10.4933C15.2769 10.4933 17.6321 8.13965 17.6321 5.24662C17.6321 2.35363 15.2769 0 12.382 0C10.3797 0 8.63586 1.12607 7.75065 2.77761H1.64924C0.942315 2.77761 0.367188 3.35273 0.367188 4.05966V18.7179C0.367188 19.4249 0.942315 20 1.64924 20H12.2926C12.9995 20 13.5747 19.4249 13.5747 18.7179V13.8917C13.5747 13.514 13.2685 13.2079 12.8909 13.2079C12.5132 13.2079 12.2071 13.514 12.2071 13.8917V18.6325H1.73471V4.14513H7.24855C7.12304 4.72978 7.09872 5.33534 7.17603 5.92829H4.14351C3.76586 5.92829 3.45975 6.2344 3.45975 6.61205C3.45975 6.9897 3.76586 7.29581 4.14351 7.29581H7.54889C7.84787 7.99734 8.29539 8.62098 8.85188 9.12704H4.14351C3.76586 9.127 3.45975 9.43311 3.45975 9.81076ZM8.49928 5.24662C8.49928 3.10769 10.241 1.36752 12.382 1.36752C14.5229 1.36752 16.2646 3.10769 16.2646 5.24662C16.2646 7.38555 14.5229 9.12576 12.382 9.12576C10.2411 9.12576 8.49928 7.38559 8.49928 5.24662Z" fill="#84C551"/>
<path d="M13.8602 6.67409C13.7568 6.67409 13.652 6.65059 13.5534 6.60097L12.0757 5.85751C11.8449 5.74135 11.6992 5.50507 11.6992 5.2467V2.42375C11.6992 2.0461 12.0053 1.73999 12.383 1.73999C12.7606 1.73999 13.0667 2.0461 13.0667 2.42375V4.82524L14.168 5.37935C14.7948 5.69473 14.5642 6.67396 13.8602 6.67409C14.1103 6.67405 13.7568 6.67409 13.8602 6.67409Z" fill="#84C551"/>
</svg>
