<svg width="158" height="49" viewBox="0 0 158 49" fill="none" xmlns="http://www.w3.org/2000/svg">
<path d="M-2.52179e-06 45.1728V3.25837C-0.0102702 2.82805 0.0670683 2.40017 0.227337 2.00111C0.387606 1.60204 0.62738 1.24023 0.931851 0.937985C1.22229 0.636008 1.57101 0.397035 1.95659 0.235723C2.34217 0.0744121 2.75643 -0.00584043 3.17395 -4.25122e-05H21.8677C31.5462 -4.25122e-05 38.5856 1.94654 42.9858 5.83965C47.386 9.73277 49.5883 15.8451 49.593 24.1768C49.593 32.4896 47.3906 38.5879 42.9858 42.4716C38.5809 46.3553 31.5416 48.2972 21.8677 48.2972H3.17395C2.75995 48.3045 2.34863 48.2291 1.96378 48.0753C1.57892 47.9216 1.2282 47.6925 0.931851 47.4015C0.626295 47.1194 0.384834 46.7743 0.224002 46.3896C0.0631696 46.005 -0.0132095 45.5899 -2.52179e-06 45.1728ZM12.612 38.7407H21.5034C27.5011 38.7407 31.5812 37.6405 33.744 35.44C35.9067 33.2395 36.9881 29.4781 36.9881 24.1556C36.9881 18.8237 35.9067 15.0623 33.744 12.8712C31.5812 10.6802 27.5011 9.57527 21.5034 9.55646H12.612V38.7407Z" fill="#1F1B1C"/>
<path d="M67.6143 36.6179V36.6531H73.2896C73.8992 36.6531 74.4947 36.6531 75.0833 36.6179H67.6143Z" fill="#84C551"/>
<path d="M109.206 6.36154V3.19487C109.192 2.7716 109.265 2.34999 109.42 1.95616C109.574 1.56233 109.808 1.20463 110.105 0.90518C110.403 0.605725 110.758 0.370887 111.149 0.215187C111.54 0.0594866 111.959 -0.0137742 112.38 -4.61343e-05H154.819C155.24 -0.0148172 155.659 0.0577462 156.051 0.213077C156.443 0.368408 156.798 0.603185 157.096 0.902855C157.394 1.20252 157.627 1.56065 157.781 1.95496C157.936 2.34926 158.008 2.77133 157.993 3.19487V6.36154C158.006 6.78168 157.933 7.19997 157.778 7.59057C157.624 7.98117 157.392 8.33581 157.096 8.63255C156.795 8.92665 156.438 9.15685 156.047 9.3095C155.656 9.46215 155.238 9.53411 154.819 9.52116H139.902V45.1728C139.91 45.5838 139.833 45.992 139.675 46.371C139.517 46.75 139.281 47.0914 138.984 47.3733C138.692 47.6647 138.345 47.8941 137.964 48.048C137.582 48.2019 137.174 48.277 136.763 48.2689H130.457C130.045 48.2775 129.635 48.2027 129.253 48.0488C128.87 47.8949 128.522 47.6652 128.229 47.3733C127.932 47.0914 127.696 46.75 127.538 46.371C127.38 45.992 127.303 45.5838 127.311 45.1728V9.54234H112.394C111.975 9.55514 111.559 9.48305 111.169 9.33038C110.779 9.17771 110.423 8.94757 110.124 8.65369C109.82 8.35709 109.582 7.99997 109.424 7.60525C109.266 7.21052 109.192 6.7869 109.206 6.36154Z" fill="#1F1B1C"/>
<path d="M54.7428 36.6179V36.6602L52.5147 45.1729C52.4419 45.5043 52.402 45.8421 52.3955 46.1814C52.4299 46.6727 52.6245 47.1388 52.9491 47.5073C53.1771 47.7762 53.4663 47.9859 53.792 48.1185C54.1176 48.251 54.4702 48.3027 54.8199 48.269H61.4132C62.3139 48.2572 63.1847 47.9418 63.8864 47.3733C64.6405 46.8217 65.1726 46.0157 65.3859 45.1023L67.614 36.639V36.6038L54.7428 36.6179Z" fill="#21603F"/>
<path d="M101.61 0.035293C101.449 0.021276 101.288 0.021276 101.127 0.035293H88.7811H81.326C74.3193 0.289192 69.0527 2.02417 65.5261 5.24022C65.3579 5.38833 65.1967 5.53641 65.0426 5.69863C63.0149 7.74632 61.5849 10.3153 60.9086 13.1252L54.7568 36.6108H75.0761C82.0501 36.3569 87.3004 34.636 90.8271 31.4482C90.9952 31.3001 91.1563 31.1449 91.3175 30.9898C93.3771 28.9387 94.8322 26.3535 95.5215 23.5209L101.673 0.035293H101.61ZM83.3509 20.3683C82.9389 21.9756 82.0981 23.4389 80.9196 24.6C80.7585 24.7551 80.5904 24.9103 80.4152 25.0584L80.1209 25.2912C78.7495 26.3418 77.1034 26.9668 75.3844 27.0896H70.0943L73.0301 16.2848C73.4333 14.6833 74.2588 13.2213 75.4194 12.0532C75.5806 11.898 75.7487 11.7428 75.9239 11.5947L76.2602 11.3197C77.6316 10.2691 79.2777 9.64405 80.9967 9.5212H86.2937L83.3509 20.3683Z" fill="#84C551"/>
<path d="M98.6466 23.6479C97.624 28.0042 95.0326 31.8239 91.3737 34.368V36.5896V45.0529C91.3581 45.4724 91.4285 45.8907 91.5806 46.2816C91.7327 46.6724 91.9633 47.0275 92.2579 47.3247C92.5524 47.6218 92.9046 47.8547 93.2926 48.0087C93.6806 48.1627 94.096 48.2345 94.5128 48.2196H100.819C101.233 48.2262 101.644 48.1504 102.028 47.9967C102.413 47.843 102.764 47.6144 103.061 47.3239C103.361 47.0439 103.6 46.7031 103.76 46.3239C103.921 45.9447 104 45.5356 103.993 45.1235V3.24426L98.6466 23.6479Z" fill="#1F1B1C"/>
</svg>
