<svg width="167" height="167" viewBox="0 0 167 167" fill="none" xmlns="http://www.w3.org/2000/svg">
<circle cx="83.2827" cy="83.2825" r="67.5" transform="rotate(-15 83.2827 83.2825)" stroke="white" stroke-opacity="0.46"/>
<g filter="url(#filter0_b_74_34)">
<circle cx="83.2827" cy="83.2825" r="56" transform="rotate(-15 83.2827 83.2825)" fill="black" fill-opacity="0.23"/>
</g>
<circle cx="83.2828" cy="83.2825" r="48.5" transform="rotate(-15 83.2828 83.2825)" stroke="#81EE92"/>
<path d="M64.104 68.5026C66.5767 67.84 68.6508 67.6984 70.326 68.0778C71.9909 68.4185 73.3654 69.3753 74.4495 70.9483C75.5336 72.5214 76.4742 74.7954 77.2713 77.7704C78.0581 80.7069 78.3754 83.1272 78.2231 85.0315C78.0708 86.9358 77.364 88.4711 76.1029 89.6372C74.8417 90.8034 72.9748 91.7177 70.502 92.3803C68.0679 93.0325 66.0132 93.169 64.3379 92.7896C62.7013 92.3999 61.3216 91.4238 60.1989 89.8611C59.1148 88.2881 58.1794 86.0334 57.3926 83.0969C56.5954 80.1219 56.273 77.6822 56.4253 75.7779C56.6163 73.8632 57.3282 72.3473 58.5611 71.2302C59.8222 70.064 61.6698 69.1548 64.104 68.5026ZM65.3774 73.255C64.4501 73.5034 63.7871 73.8881 63.3883 74.4091C62.9896 74.9301 62.814 75.7432 62.8617 76.8485C62.9377 77.9048 63.2397 79.4182 63.7677 81.3887C64.2957 83.3592 64.796 84.8402 65.2687 85.8316C65.7697 86.7741 66.3231 87.3712 66.9289 87.623C67.5348 87.8748 68.3013 87.8764 69.2286 87.6279C70.1945 87.3691 70.8769 86.9792 71.2756 86.4583C71.6744 85.9373 71.8358 85.1487 71.7598 84.0924C71.7121 82.987 71.4242 81.4491 70.8962 79.4787C70.3682 77.5082 69.8537 76.0517 69.3527 75.1092C68.88 74.1178 68.3408 73.4962 67.735 73.2444C67.1292 72.9926 66.3433 72.9962 65.3774 73.255ZM93.3571 61.5339L80.1366 107.937L74.7467 109.381L87.9673 62.9781L93.3571 61.5339ZM97.6443 78.4611C100.117 77.7985 102.172 77.6621 103.808 78.0517C105.473 78.3924 106.848 79.3493 107.932 80.9223C109.006 82.4567 109.941 84.7114 110.738 87.6865C111.525 90.6229 111.847 93.0626 111.705 95.0055C111.553 96.9098 110.846 98.4451 109.585 99.6112C108.352 100.728 106.5 101.618 104.027 102.281C101.593 102.933 99.5431 103.089 97.8782 102.748C96.2416 102.358 94.8619 101.382 93.7392 99.8196C92.6448 98.2079 91.7042 95.9339 90.9174 92.9974C90.1202 90.0224 89.8029 87.602 89.9656 85.7364C90.1566 83.8217 90.8685 82.3058 92.1013 81.1886C93.3625 80.0225 95.2101 79.1133 97.6443 78.4611ZM98.8597 83.229C97.9324 83.4774 97.2501 83.8673 96.8127 84.3986C96.4036 84.8809 96.2422 85.6696 96.3285 86.7645C96.4045 87.8209 96.7065 89.3343 97.2345 91.3048C97.7625 93.2753 98.2628 94.7562 98.7356 95.7477C99.2083 96.7391 99.7475 97.3607 100.353 97.6125C100.987 97.8153 101.768 97.7924 102.695 97.544C103.661 97.2852 104.349 96.9146 104.758 96.4323C105.157 95.9113 105.332 95.0982 105.285 93.9929C105.237 92.8875 104.949 91.3496 104.421 89.3792C103.893 87.4087 103.379 85.9522 102.878 85.0098C102.366 84.0287 101.813 83.4316 101.217 83.2184C100.612 82.9666 99.8256 82.9701 98.8597 83.229Z" fill="white"/>
<defs>
<filter id="filter0_b_74_34" x="1.2688" y="1.26855" width="164.028" height="164.028" filterUnits="userSpaceOnUse" color-interpolation-filters="sRGB">
<feFlood flood-opacity="0" result="BackgroundImageFix"/>
<feGaussianBlur in="BackgroundImageFix" stdDeviation="13"/>
<feComposite in2="SourceAlpha" operator="in" result="effect1_backgroundBlur_74_34"/>
<feBlend mode="normal" in="SourceGraphic" in2="effect1_backgroundBlur_74_34" result="shape"/>
</filter>
</defs>
</svg>
