<svg width="18" height="20" viewBox="0 0 18 20" fill="none" xmlns="http://www.w3.org/2000/svg">
<path d="M11.0508 20H1.08984C0.605195 20 0.210938 19.6057 0.210938 19.1211V4.46094C0.210938 3.97633 0.605195 3.58203 1.08984 3.58203H2.77383C2.93563 3.58203 3.0668 3.71316 3.0668 3.875C3.0668 4.03684 2.93563 4.16797 2.77383 4.16797H1.08984C0.928281 4.16797 0.796875 4.29938 0.796875 4.46094V19.1211C0.796875 19.2827 0.928281 19.4141 1.08984 19.4141H11.0508C11.2123 19.4141 11.3438 19.2827 11.3438 19.1211V12.3047H4.60547C4.12082 12.3047 3.72656 11.9104 3.72656 11.4258V0.878906C3.72656 0.394297 4.12082 0 4.60547 0H13.3945C13.8792 0 14.2734 0.394297 14.2734 0.878906V3.80859C14.2734 3.97043 14.1423 4.10156 13.9805 4.10156C13.8187 4.10156 13.6875 3.97043 13.6875 3.80859V0.878906C13.6875 0.717344 13.5561 0.585938 13.3945 0.585938H4.60547C4.44391 0.585938 4.3125 0.717344 4.3125 0.878906V11.4258C4.3125 11.5873 4.44391 11.7188 4.60547 11.7188H13.3945C13.5561 11.7188 13.6875 11.5873 13.6875 11.4258V4.98047C13.6875 4.81863 13.8187 4.6875 13.9805 4.6875H15.7383C15.9001 4.6875 16.0312 4.81863 16.0312 4.98047C16.0312 5.1423 15.9001 5.27344 15.7383 5.27344H14.2734V6.44531H15.7383C15.9001 6.44531 16.0312 6.57645 16.0312 6.73828C16.0312 6.90012 15.9001 7.03125 15.7383 7.03125H14.2734V8.20312H15.7383C15.9001 8.20312 16.0312 8.33426 16.0312 8.49609C16.0312 8.65793 15.9001 8.78906 15.7383 8.78906H14.2734V9.96094H15.7383C15.9001 9.96094 16.0312 10.0921 16.0312 10.2539C16.0312 10.4157 15.9001 10.5469 15.7383 10.5469H14.2734V11.4258C14.2734 11.5284 14.2557 11.6271 14.2232 11.7188H15.7383C15.9001 11.7188 16.0312 11.8499 16.0312 12.0117C16.0312 12.1736 15.9001 12.3047 15.7383 12.3047H11.9297V13.4766H15.7383C15.9001 13.4766 16.0312 13.6077 16.0312 13.7695C16.0312 13.9314 15.9001 14.0625 15.7383 14.0625H11.9297V15.8984H16.9102C17.0717 15.8984 17.2031 15.767 17.2031 15.6055V2.70312C17.2031 2.54156 17.0717 2.41016 16.9102 2.41016H15.1523C14.9905 2.41016 14.8594 2.27902 14.8594 2.11719C14.8594 1.95535 14.9905 1.82422 15.1523 1.82422H16.9102C17.3948 1.82422 17.7891 2.21852 17.7891 2.70312V15.6055C17.7891 16.0901 17.3948 16.4844 16.9102 16.4844H11.9297V18.2422H15.1523C15.3139 18.2422 15.4453 18.1108 15.4453 17.9492V17.3633C15.4453 17.2014 15.5765 17.0703 15.7383 17.0703C15.9001 17.0703 16.0312 17.2014 16.0312 17.3633V17.9492C16.0312 18.4338 15.637 18.8281 15.1523 18.8281H11.9297V19.1211C11.9297 19.6057 11.5354 20 11.0508 20ZM12.8086 11.1328H5.19141C5.02961 11.1328 4.89844 11.0017 4.89844 10.8398V9.82211C4.89844 8.31668 5.89375 7.97223 6.62051 7.7207C7.22031 7.51312 7.5609 7.37328 7.62094 6.92215C6.97437 6.48043 6.54918 5.73754 6.54918 4.89711V3.68906C6.54918 2.3377 7.64863 1.23828 9 1.23828C10.3514 1.23828 11.4508 2.33773 11.4508 3.68906V4.89711C11.4508 5.73754 11.0257 6.48043 10.3791 6.92215C10.4391 7.37332 10.7797 7.51312 11.3795 7.7207C12.1063 7.97223 13.1016 8.31668 13.1016 9.82211V10.8398C13.1016 11.0017 12.9704 11.1328 12.8086 11.1328ZM5.48438 10.5469H12.5156V9.82211C12.5156 8.73394 11.9003 8.52098 11.1879 8.27441C10.6617 8.09234 10.0273 7.87273 9.83887 7.2C9.57703 7.2957 9.29453 7.34789 9 7.34789C8.70547 7.34789 8.42297 7.2957 8.16113 7.2C7.97266 7.87273 7.33832 8.09234 6.81215 8.27441C6.09969 8.52102 5.48438 8.73394 5.48438 9.82211V10.5469ZM9 1.82422C7.97172 1.82422 7.13512 2.66078 7.13512 3.68906V4.89711C7.13512 5.92539 7.97172 6.76195 9 6.76195C10.0283 6.76195 10.8649 5.92539 10.8649 4.89711V3.68906C10.8649 2.66078 10.0283 1.82422 9 1.82422Z" fill="#84C551"/>
</svg>
