<svg width="76" height="76" viewBox="0 0 76 76" fill="none" xmlns="http://www.w3.org/2000/svg">
<circle cx="38.0296" cy="38.2092" r="37.5647" fill="#472209"/>
<path d="M32.8729 46.8704L45.6887 38.7105L32.8729 30.5506V46.8704ZM37.5288 57.9102C34.9049 57.9102 32.4249 57.4062 30.0889 56.3982C27.753 55.3903 25.713 54.0143 23.969 52.2703C22.225 50.5263 20.8491 48.4864 19.8411 46.1504C18.8331 43.8144 18.3291 41.3344 18.3291 38.7105C18.3291 36.0545 18.8331 33.5586 19.8411 31.2226C20.8491 28.8866 22.225 26.8546 23.969 25.1267C25.713 23.3987 27.753 22.0307 30.0889 21.0227C32.4249 20.0147 34.9049 19.5107 37.5288 19.5107C40.1848 19.5107 42.6808 20.0147 45.0167 21.0227C47.3527 22.0307 49.3847 23.3987 51.1127 25.1267C52.8406 26.8546 54.2086 28.8866 55.2166 31.2226C56.2246 33.5586 56.7286 36.0545 56.7286 38.7105C56.7286 41.3344 56.2246 43.8144 55.2166 46.1504C54.2086 48.4864 52.8406 50.5263 51.1127 52.2703C49.3847 54.0143 47.3527 55.3903 45.0167 56.3982C42.6808 57.4062 40.1848 57.9102 37.5288 57.9102ZM37.5288 55.0303C42.0728 55.0303 45.9287 53.4383 49.0967 50.2543C52.2646 47.0704 53.8486 43.2224 53.8486 38.7105C53.8486 34.1665 52.2646 30.3106 49.0967 27.1426C45.9287 23.9747 42.0728 22.3907 37.5288 22.3907C33.0169 22.3907 29.169 23.9747 25.985 27.1426C22.801 30.3106 21.2091 34.1665 21.2091 38.7105C21.2091 43.2224 22.801 47.0704 25.985 50.2543C29.169 53.4383 33.0169 55.0303 37.5288 55.0303Z" fill="white"/>
</svg>
