<svg width="44" height="44" viewBox="0 0 44 44" fill="none" xmlns="http://www.w3.org/2000/svg">
<g id="Frame">
<g id="resize, navigation, full, size, move, editing, maximize">
<path id="Vector" d="M39.875 2.75H4.125C3.76033 2.75 3.41059 2.89487 3.15273 3.15273C2.89487 3.41059 2.75 3.76033 2.75 4.125V39.875C2.75 40.2397 2.89487 40.5894 3.15273 40.8473C3.41059 41.1051 3.76033 41.25 4.125 41.25H39.875C40.2397 41.25 40.5894 41.1051 40.8473 40.8473C41.1051 40.5894 41.25 40.2397 41.25 39.875V4.125C41.25 3.76033 41.1051 3.41059 40.8473 3.15273C40.5894 2.89487 40.2397 2.75 39.875 2.75ZM38.5 38.5H5.5V5.5H38.5V38.5Z" fill="#472209"/>
<path id="Vector_2" d="M9.625 35.75H16.5C16.8647 35.75 17.2144 35.6051 17.4723 35.3473C17.7301 35.0894 17.875 34.7397 17.875 34.375C17.875 34.0103 17.7301 33.6606 17.4723 33.4027C17.2144 33.1449 16.8647 33 16.5 33H12.9387L22 23.9387L31.0613 33H27.5C27.1353 33 26.7856 33.1449 26.5277 33.4027C26.2699 33.6606 26.125 34.0103 26.125 34.375C26.125 34.7397 26.2699 35.0894 26.5277 35.3473C26.7856 35.6051 27.1353 35.75 27.5 35.75H34.375C34.7397 35.75 35.0894 35.6051 35.3473 35.3473C35.6051 35.0894 35.75 34.7397 35.75 34.375V27.5C35.75 27.1353 35.6051 26.7856 35.3473 26.5277C35.0894 26.2699 34.7397 26.125 34.375 26.125C34.0103 26.125 33.6606 26.2699 33.4027 26.5277C33.1449 26.7856 33 27.1353 33 27.5V31.0613L23.9387 22L33 12.9387V16.5C33 16.8647 33.1449 17.2144 33.4027 17.4723C33.6606 17.7301 34.0103 17.875 34.375 17.875C34.7397 17.875 35.0894 17.7301 35.3473 17.4723C35.6051 17.2144 35.75 16.8647 35.75 16.5V9.625C35.75 9.26033 35.6051 8.91059 35.3473 8.65273C35.0894 8.39487 34.7397 8.25 34.375 8.25H27.5C27.1353 8.25 26.7856 8.39487 26.5277 8.65273C26.2699 8.91059 26.125 9.26033 26.125 9.625C26.125 9.98967 26.2699 10.3394 26.5277 10.5973C26.7856 10.8551 27.1353 11 27.5 11H31.0613L22 20.0613L12.9387 11H16.5C16.8647 11 17.2144 10.8551 17.4723 10.5973C17.7301 10.3394 17.875 9.98967 17.875 9.625C17.875 9.26033 17.7301 8.91059 17.4723 8.65273C17.2144 8.39487 16.8647 8.25 16.5 8.25H9.625C9.26033 8.25 8.91059 8.39487 8.65273 8.65273C8.39487 8.91059 8.25 9.26033 8.25 9.625V16.5C8.25 16.8647 8.39487 17.2144 8.65273 17.4723C8.91059 17.7301 9.26033 17.875 9.625 17.875C9.98967 17.875 10.3394 17.7301 10.5973 17.4723C10.8551 17.2144 11 16.8647 11 16.5V12.9387L20.0613 22L11 31.0613V27.5C11 27.1353 10.8551 26.7856 10.5973 26.5277C10.3394 26.2699 9.98967 26.125 9.625 26.125C9.26033 26.125 8.91059 26.2699 8.65273 26.5277C8.39487 26.7856 8.25 27.1353 8.25 27.5V34.375C8.25 34.7397 8.39487 35.0894 8.65273 35.3473C8.91059 35.6051 9.26033 35.75 9.625 35.75Z" fill="#472209"/>
</g>
</g>
</svg>
