<svg width="24" height="24" viewBox="0 0 24 24" fill="none" xmlns="http://www.w3.org/2000/svg">
<g clip-path="url(#clip0_25_913)">
<path d="M10.6344 5.45278C10.8451 5.31942 10.9078 5.04047 10.7745 4.82974C9.57095 2.92807 8.28035 1.9289 6.93183 1.9289C5.93472 1.9289 4.95866 2.48573 4.03013 3.55055C3.25692 4.43727 2.52923 5.65454 1.86548 7.16537C0.709886 9.79575 -0.1 13.0311 -0.1 15.0393C-0.1 18.9167 3.05436 22.0711 6.93183 22.0711C7.8284 22.0711 8.68641 21.9024 9.47583 21.595C10.2626 21.8834 11.0796 22.0276 11.8953 22.0276C12.8734 22.0276 13.849 21.8208 14.7676 21.4091C16.1729 20.7798 18.1117 19.3739 19.8306 17.743L19.8306 17.743C20.0115 17.5713 20.019 17.2855 19.8474 17.1046L19.8474 17.1046L10.5809 5.36828M10.6344 5.45278L10.5809 5.36828M10.6344 5.45278C10.6344 5.45276 10.6344 5.45275 10.6344 5.45274L10.5809 5.36828M10.6344 5.45278C10.4237 5.58626 10.1447 5.52345 10.0113 5.31273L10.0958 5.25925C10.1997 5.42335 10.4169 5.4722 10.5809 5.36828M14.3983 20.5849L14.3983 20.5849C15.6873 20.0078 17.5771 18.6361 19.2089 17.0879C19.2089 17.0879 19.2089 17.0879 19.2089 17.0878L19.2778 17.1604L14.3983 20.5849ZM14.3983 20.5849C13.2097 21.1176 11.9131 21.2563 10.6627 20.9973M14.3983 20.5849L10.6627 20.9973M10.6627 20.9973C11.2041 20.6571 11.6959 20.2453 12.1251 19.7752C14.9762 19.3968 17.0152 17.3473 17.1026 17.2582L17.0313 17.1882L17.1027 17.2582C17.2773 17.0803 17.2747 16.7943 17.0967 16.6197L17.0967 16.6196C16.9187 16.445 16.6328 16.4476 16.4581 16.6256L10.6627 20.9973Z" fill="white" stroke="white" stroke-width="0.2"/>
<path d="M11.5417 6.19443L11.5417 6.19445C11.7708 6.65009 11.9916 7.13665 12.2005 7.643C14.4284 7.20398 16.8827 7.04475 18.8427 7.21859C21.4893 7.45327 23.2473 8.27162 23.8564 9.6311M11.5417 6.19443L23.7652 9.67198M11.5417 6.19443C11.4296 5.97166 11.1583 5.88179 10.9354 5.99388L11.5417 6.19443ZM23.8564 9.6311L23.7652 9.67198M23.8564 9.6311C23.8564 9.63109 23.8564 9.63109 23.8564 9.63109L23.7652 9.67198M23.8564 9.6311C24.3761 10.7907 24.001 12.1551 23.3251 13.4147C22.6468 14.6789 21.6511 15.865 20.8823 16.6857M23.7652 9.67198C24.7648 11.9025 22.3423 14.9809 20.8093 16.6174M20.8823 16.6857L20.8093 16.6174M20.8823 16.6857C20.8823 16.6857 20.8823 16.6857 20.8823 16.6857L20.8093 16.6174M20.8823 16.6857C20.7934 16.7806 20.673 16.8286 20.5527 16.8286C20.4421 16.8286 20.3311 16.7882 20.244 16.7066L20.244 16.7066C20.062 16.5361 20.0527 16.2503 20.2232 16.0683M20.8093 16.6174L20.0207 9.23312C19.884 9.20084 16.9808 8.54713 13.0174 9.92063C12.8691 9.44046 12.7074 8.96375 12.5347 8.49798C14.6413 8.09766 16.9335 7.95594 18.763 8.11812C19.5861 8.1911 20.5141 8.34065 21.3083 8.6358C22.105 8.93185 22.7487 9.36744 23.0323 10.0003L23.0323 10.0003C23.3192 10.6406 23.2266 11.5096 22.7492 12.5527C22.273 13.5931 21.4216 14.789 20.2232 16.0683M20.2232 16.0683L20.2962 16.1367M20.2232 16.0683C20.2232 16.0683 20.2232 16.0683 20.2232 16.0683L20.2962 16.1367M20.2962 16.1367C22.7015 13.5689 23.7321 11.3173 23.1236 9.95942L20.3124 16.6336C20.1707 16.5009 20.1634 16.2784 20.2962 16.1367ZM13.7072 12.6848L13.7072 12.6848C13.7529 12.9299 13.5912 13.1657 13.3461 13.2115C13.3461 13.2115 13.3461 13.2115 13.3461 13.2115L13.7072 12.6848ZM13.7072 12.6848C13.5919 12.0668 13.4439 11.429 13.2696 10.7891M13.7072 12.6848L13.2696 10.7891M13.2696 10.7891C15.1239 10.1416 16.7447 9.96891 17.9099 9.95989C18.5016 9.9553 18.9757 9.99293 19.3029 10.032C19.4665 10.0515 19.5934 10.0713 19.6799 10.0864C19.7232 10.094 19.7563 10.1004 19.7789 10.1049L19.8048 10.1102L19.8116 10.1117C19.8133 10.1121 19.8141 10.1123 19.8141 10.1123L19.8365 10.0148M13.2696 10.7891L20.2594 9.75327C20.2148 9.94222 20.0255 10.0595 19.8365 10.0148M19.8365 10.0148L19.8136 10.1121C20.0563 10.1695 20.2995 10.0189 20.3567 9.7762M19.8365 10.0148L20.3567 9.7762M20.3567 9.7762C20.4139 9.53344 20.2634 9.29035 20.0207 9.23313L20.3567 9.7762ZM12.8193 12.8504L12.9176 12.832L10.9354 5.9939C10.7125 6.10591 10.6228 6.37739 10.7348 6.60015C11.6487 8.41742 12.4284 10.7549 12.8193 12.8504Z" fill="white" stroke="white" stroke-width="0.2"/>
<path d="M18.4885 12.8792L18.4885 12.8792C18.7123 12.7692 18.9829 12.8615 19.0929 13.0854C19.0929 13.0854 19.0929 13.0854 19.0929 13.0854L18.4885 12.8792ZM18.4885 12.8792L14.3976 14.8898L14.3976 14.8898M18.4885 12.8792L14.3976 14.8898M14.1915 15.4942C14.1915 15.4942 14.1915 15.4942 14.1915 15.4942L14.2812 15.4501L14.1915 15.4942ZM14.1915 15.4942C14.0815 15.2704 14.1738 14.9998 14.3976 14.8898M14.1915 15.4942L14.3976 14.8898M14.7518 15.6106L18.8427 13.6001L14.7518 15.6106Z" fill="white" stroke="white" stroke-width="0.2"/>
<path d="M5.63278 5.18199L5.63278 5.18199C5.83075 5.3333 5.86874 5.61633 5.71773 5.81448L5.6382 5.75387M5.63278 5.18199L3.51068 17.4552V17.3552L3.51071 17.4552C3.53993 17.4552 3.56958 17.4524 3.59933 17.4465M5.63278 5.18199C5.43462 5.03056 5.15124 5.0685 4.99982 5.26651L4.99981 5.26653C4.95982 5.31885 4.1251 6.42594 3.46908 8.44219C2.86729 10.2917 2.31062 13.2918 3.06818 17.0919L3.16625 17.0724C2.41264 13.292 2.96665 10.3095 3.56417 8.47313C4.21587 6.47016 5.04429 5.37301 5.07926 5.32726C5.19715 5.17308 5.41779 5.14355 5.57206 5.26144C5.72618 5.37924 5.75576 5.5996 5.6382 5.75387M5.63278 5.18199L4.22234 8.72288C4.83546 6.82308 5.63023 5.76437 5.6382 5.75387M5.6382 5.75387L5.71785 5.81432C5.71786 5.81431 5.7147 5.81851 5.70854 5.82696C5.70245 5.83531 5.69353 5.84771 5.682 5.86409C5.65895 5.89684 5.6255 5.94553 5.58354 6.00974C5.49963 6.13817 5.38171 6.32867 5.24487 6.578C4.97116 7.0767 4.62187 7.81051 4.31751 8.75359C3.75672 10.4913 3.23706 13.3198 3.95389 16.9153C4.00266 17.1599 3.84389 17.3977 3.59933 17.4465M3.59933 17.4465L3.57978 17.3484L3.59939 17.4465C3.59937 17.4465 3.59935 17.4465 3.59933 17.4465Z" fill="white" stroke="white" stroke-width="0.2"/>
<path d="M10.5454 10.9554L10.5455 10.9554C10.7775 10.8648 11.0392 10.979 11.1301 11.2111M10.5454 10.9554L11.6963 14.1347C11.6963 14.1347 11.6963 14.1347 11.6963 14.1347M10.5454 10.9554C10.3133 11.0461 10.1986 11.3079 10.289 11.54C10.289 11.54 10.289 11.5401 10.289 11.5401C10.2892 11.5404 10.2896 11.5415 10.2904 11.5437L10.2943 11.5541C10.2977 11.5632 10.3026 11.5766 10.3088 11.5941C10.3213 11.6291 10.3391 11.6805 10.3605 11.7467C10.4034 11.879 10.461 12.0705 10.5203 12.3086C10.6391 12.7851 10.7647 13.4469 10.7948 14.1942C10.8739 16.1591 10.2894 17.7561 9.06448 18.9515L9.06448 18.9515C8.88602 19.1257 8.88252 19.4116 9.05672 19.59L9.05672 19.59C9.14523 19.6807 9.26269 19.7263 9.37995 19.7263C9.49355 19.7263 9.60752 19.6835 9.69533 19.5978C11.1006 18.2264 11.7902 16.3345 11.6963 14.1347M10.5454 10.9554L11.6963 14.1347M11.1301 11.2111L11.037 11.2476L11.1301 11.211C11.1301 11.2111 11.1301 11.2111 11.1301 11.2111ZM11.1301 11.2111C11.1524 11.2679 11.6263 12.4955 11.6963 14.1347" fill="white" stroke="white" stroke-width="0.2"/>
<path d="M8.13707 7.68839L8.13707 7.68839L8.13632 7.68841C7.8871 7.69727 7.69222 7.90649 7.70107 8.15574L7.70107 8.15575L7.86302 12.7112L7.86302 12.7112C7.87175 12.955 8.07204 13.1467 8.3141 13.1467C8.31976 13.1467 8.3252 13.1466 8.33014 13.1465L8.33035 13.1464C8.57956 13.1376 8.77445 12.9284 8.7656 12.6791L8.7656 12.6791L8.60365 8.12366C8.60365 8.12366 8.60365 8.12366 8.60365 8.12366C8.59477 7.87376 8.38543 7.68144 8.13707 7.68839Z" fill="white" stroke="white" stroke-width="0.2"/>
<path d="M4.54913 18.4054L4.54916 18.4054C4.54914 18.4054 4.54985 18.4062 4.55139 18.4078L4.55768 18.4146L4.58126 18.4393C4.60171 18.4605 4.63142 18.4907 4.66932 18.5276C4.74515 18.6013 4.85352 18.7017 4.98588 18.8105C5.25182 19.0292 5.60933 19.2776 5.99091 19.4165C6.22522 19.5017 6.34614 19.7608 6.26083 19.9951C6.26083 19.9951 6.26083 19.9952 6.26082 19.9952L6.16686 19.961C6.11492 20.1037 5.98011 20.1924 5.83648 20.1924C5.79655 20.1924 5.756 20.1856 5.7163 20.1711L4.54913 18.4054ZM4.54913 18.4054C4.38195 18.2207 4.09659 18.2062 3.91159 18.3734L4.54913 18.4054ZM3.87932 19.0112C3.91287 19.0484 4.69411 19.9056 5.68202 20.2651L3.87932 19.0112ZM3.91158 18.3734C3.72658 18.5406 3.71213 18.8261 3.87929 19.0112L3.91158 18.3734Z" fill="white" stroke="white" stroke-width="0.2"/>
<path d="M8.5127 13.6461C8.26332 13.6461 8.06113 13.8482 8.06113 14.0977V14.1296C8.06113 14.379 8.26332 14.5811 8.5127 14.5811C8.76207 14.5811 8.96426 14.379 8.96426 14.1296V14.0977C8.96426 13.8482 8.76207 13.6461 8.5127 13.6461Z" fill="white" stroke="white" stroke-width="0.2"/>
<path d="M7.64648 14.5724C7.39711 14.5724 7.19492 14.7745 7.19492 15.0239V15.0558C7.19492 15.3053 7.39711 15.5074 7.64648 15.5074C7.89586 15.5074 8.09805 15.3053 8.09805 15.0558V15.0239C8.09805 14.7745 7.89592 14.5724 7.64648 14.5724Z" fill="white" stroke="white" stroke-width="0.2"/>
<path d="M8.76465 16.147C8.51527 16.147 8.31309 16.3491 8.31309 16.5986V16.6305C8.31309 16.8799 8.51526 17.0821 8.76465 17.0821C9.01402 17.0821 9.21621 16.8799 9.21621 16.6305V16.5986C9.21621 16.3491 9.01402 16.147 8.76465 16.147Z" fill="white" stroke="white" stroke-width="0.2"/>
</g>
<defs>
<clipPath id="clip0_25_913">
<rect width="24" height="24" fill="white"/>
</clipPath>
</defs>
</svg>
