<svg width="30" height="29" viewBox="0 0 30 29" fill="none" xmlns="http://www.w3.org/2000/svg">
<g id="Icons">
<path id="Vector" d="M14.9888 27.4464C22.0887 27.4464 27.8443 21.6908 27.8443 14.591C27.8443 7.49107 22.0887 1.73547 14.9888 1.73547C7.88889 1.73547 2.1333 7.49107 2.1333 14.591C2.1333 21.6908 7.88889 27.4464 14.9888 27.4464Z" fill="url(#paint0_linear_228_230)"/>
<path id="Vector_2" d="M12.6511 20.4344C12.3412 20.4344 12.0439 20.3112 11.8248 20.092L8.31879 16.586C8.1059 16.3655 7.9881 16.0703 7.99077 15.7639C7.99343 15.4575 8.11634 15.1644 8.33302 14.9477C8.5497 14.731 8.84282 14.6081 9.14925 14.6054C9.45567 14.6028 9.75088 14.7206 9.9713 14.9334L12.6511 17.6132L20.0056 10.2587C20.226 10.0458 20.5212 9.92805 20.8276 9.93071C21.1341 9.93337 21.4272 10.0563 21.6439 10.273C21.8605 10.4896 21.9835 10.7828 21.9861 11.0892C21.9888 11.3956 21.871 11.6908 21.6581 11.9112L13.4773 20.092C13.2582 20.3112 12.961 20.4344 12.6511 20.4344Z" fill="black"/>
</g>
<defs>
<linearGradient id="paint0_linear_228_230" x1="14.9888" y1="1.73547" x2="14.9888" y2="27.4464" gradientUnits="userSpaceOnUse">
<stop stop-color="#81EE92"/>
<stop offset="0.0001" stop-color="#7AF28D"/>
<stop offset="1" stop-color="#22B342"/>
</linearGradient>
</defs>
</svg>
