<svg width="14" height="11" viewBox="0 0 14 11" fill="none" xmlns="http://www.w3.org/2000/svg">
<path d="M13.9812 0.00316078C13.9332 -0.00105359 13.8849 -0.00105359 13.8369 0.00316078H10.1529H7.9283C5.8375 0.0794983 4.26593 0.601139 3.21356 1.56808C3.16338 1.61261 3.11528 1.65713 3.06928 1.7059C2.46422 2.32157 2.0375 3.09396 1.8357 3.93878L0 11H6.06332C8.14437 10.9237 9.71107 10.4063 10.7634 9.4478C10.8136 9.40327 10.8617 9.35662 10.9098 9.30997C11.5244 8.69328 11.9586 7.91603 12.1643 7.06438L14 0.00316078H13.9812ZM8.53255 6.11651C8.40958 6.59975 8.15871 7.03971 7.80705 7.38881C7.75896 7.43546 7.70879 7.48211 7.65652 7.52664L7.56869 7.59662C7.15947 7.91249 6.66827 8.10041 6.15531 8.13734H4.57674L5.4528 4.88876C5.57309 4.40726 5.81944 3.96767 6.16577 3.61647C6.21386 3.56981 6.26403 3.52316 6.3163 3.47863L6.41666 3.39594C6.82588 3.08007 7.31708 2.89214 7.83004 2.8552H9.41068L8.53255 6.11651Z" fill="#84C551"/>
</svg>
