<svg width="32" height="25" viewBox="0 0 32 25" fill="none" xmlns="http://www.w3.org/2000/svg">
<path d="M31.957 0.007916C31.8473 -0.0016621 31.7369 -0.0016621 31.6272 0.007916H23.2067H18.1218C13.3429 0.18141 9.7507 1.36696 7.34528 3.56455C7.23059 3.66576 7.12064 3.76694 7.0155 3.87779C5.6325 5.27702 4.65714 7.03246 4.1959 8.95251L0 25.0007H13.859C18.6157 24.8272 22.1967 23.6513 24.6022 21.473C24.7169 21.3718 24.8267 21.2658 24.9367 21.1597C26.3415 19.7582 27.3339 17.9917 27.804 16.0561L32 0.007916H31.957ZM19.503 13.9019C19.2219 15.0002 18.6485 16.0001 17.8447 16.7935C17.7348 16.8995 17.6201 17.0055 17.5006 17.1067L17.2999 17.2658C16.3645 17.9837 15.2418 18.4108 14.0693 18.4947H10.4611L12.4635 11.1115C12.7385 10.0172 13.3016 9.01817 14.0932 8.21997C14.2031 8.11395 14.3178 8.00791 14.4373 7.90671L14.6666 7.71878C15.602 7.00089 16.7247 6.57378 17.8972 6.48983H21.5101L19.503 13.9019Z" fill="#84C551"/>
</svg>
