<svg width="52" height="52" viewBox="0 0 52 52" fill="none" xmlns="http://www.w3.org/2000/svg">
<g clip-path="url(#clip0_316_1146)">
<path d="M26 52C40.3594 52 52 40.3594 52 26C52 11.6406 40.3594 0 26 0C11.6406 0 0 11.6406 0 26C0 40.3594 11.6406 52 26 52Z" fill="#4D76A1"/>
<path fill-rule="evenodd" clip-rule="evenodd" d="M25.0148 37.4057H27.0562C27.0562 37.4057 27.6757 37.3346 27.9906 36.9995C28.2851 36.6846 28.2749 36.1057 28.2749 36.1057C28.2749 36.1057 28.2343 33.3635 29.5038 32.9674C30.7531 32.5713 32.3679 35.6081 34.0742 36.7862C35.364 37.6698 36.339 37.4768 36.339 37.4768L40.8992 37.4159C40.8992 37.4159 43.2859 37.2737 42.1484 35.3948C42.057 35.2424 41.4882 34.0034 38.7562 31.4745C35.9023 28.8237 36.2781 29.2502 39.721 24.6596C41.8234 21.8667 42.6562 20.1604 42.3921 19.4292C42.1382 18.7284 40.6046 18.9213 40.6046 18.9213L35.4656 18.9518C35.4656 18.9518 35.0898 18.901 34.8054 19.0635C34.5312 19.226 34.3484 19.612 34.3484 19.612C34.3484 19.612 33.5359 21.7752 32.4492 23.6135C30.164 27.4932 29.2499 27.6963 28.8742 27.4627C28.0007 26.894 28.2242 25.2081 28.2242 23.9995C28.2242 20.2417 28.7929 18.6674 27.1171 18.2612C26.5585 18.1292 26.1523 18.0377 24.7202 18.0276C22.8921 18.0073 21.3382 18.0276 20.4546 18.4643C19.8757 18.7487 19.4187 19.3885 19.6929 19.419C20.0281 19.4596 20.7999 19.6323 21.2062 20.1807C21.7343 20.8917 21.714 22.5065 21.714 22.5065C21.714 22.5065 22.0187 26.9346 21.0031 27.4831C20.3124 27.8588 19.3577 27.087 17.3265 23.5729C16.2804 21.7651 15.4984 19.7745 15.4984 19.7745C15.4984 19.7745 15.346 19.3987 15.0718 19.2057C14.7367 18.962 14.2796 18.8909 14.2796 18.8909L9.40462 18.9213C9.40462 18.9213 8.67337 18.9417 8.39916 19.2565C8.16556 19.5409 8.37884 20.1299 8.37884 20.1299C8.37884 20.1299 12.1976 29.0674 16.5242 33.5667C20.5156 37.6799 25.0148 37.4057 25.0148 37.4057Z" fill="white"/>
</g>
<defs>
<clipPath id="clip0_316_1146">
<rect width="52" height="52" fill="white"/>
</clipPath>
</defs>
</svg>
