<svg width="48" height="47" viewBox="0 0 48 47" fill="none" xmlns="http://www.w3.org/2000/svg">
<rect width="48" height="47" rx="10" fill="url(#paint0_linear_14_121)"/>
<path d="M18 34.875C19.7949 34.875 21.25 33.42 21.25 31.625C21.25 29.83 19.7949 28.375 18 28.375C16.2051 28.375 14.75 29.83 14.75 31.625C14.75 33.42 16.2051 34.875 18 34.875Z" stroke="black" stroke-width="2" stroke-miterlimit="1.5" stroke-linecap="round" stroke-linejoin="round"/>
<path d="M34.25 34.875C36.045 34.875 37.5 33.42 37.5 31.625C37.5 29.83 36.045 28.375 34.25 28.375C32.455 28.375 31 29.83 31 31.625C31 33.42 32.455 34.875 34.25 34.875Z" stroke="black" stroke-width="2" stroke-miterlimit="1.5" stroke-linecap="round" stroke-linejoin="round"/>
<path d="M21.3313 31.625H29.375V14.725C29.375 14.1865 28.9385 13.75 28.4 13.75H6.625" stroke="black" stroke-width="2" stroke-linecap="round"/>
<path d="M14.1813 31.625H10.85C10.3115 31.625 9.875 31.1885 9.875 30.65V22.6875" stroke="black" stroke-width="2" stroke-linecap="round"/>
<path d="M8.25 18.625H14.75" stroke="black" stroke-width="2" stroke-linecap="round" stroke-linejoin="round"/>
<path d="M29.375 18.625H38.4914C38.8767 18.625 39.2259 18.8519 39.3824 19.204L42.291 25.7484C42.3464 25.8732 42.375 26.008 42.375 26.1444V30.65C42.375 31.1885 41.9385 31.625 41.4 31.625H38.3125" stroke="black" stroke-width="2" stroke-linecap="round"/>
<path d="M29.375 31.625H31" stroke="black" stroke-width="2" stroke-linecap="round"/>
<defs>
<linearGradient id="paint0_linear_14_121" x1="24" y1="0" x2="24" y2="47" gradientUnits="userSpaceOnUse">
<stop stop-color="#81EE92"/>
<stop offset="0.0001" stop-color="#7AF28D"/>
<stop offset="1" stop-color="#22B342"/>
</linearGradient>
</defs>
</svg>
