<svg width="1240" height="214" viewBox="0 0 1240 214" fill="none" xmlns="http://www.w3.org/2000/svg">
<path d="M0.333333 211C0.333333 212.473 1.52724 213.667 3 213.667C4.47276 213.667 5.66667 212.473 5.66667 211C5.66667 209.527 4.47276 208.333 3 208.333C1.52724 208.333 0.333333 209.527 0.333333 211ZM89.8787 166.348L90.0493 166.818L89.8787 166.348ZM221.806 143.174L221.838 143.673L221.844 143.672L221.806 143.174ZM300.104 143.174L300.163 142.677L300.104 143.174ZM371.967 160.13L372.086 159.645L371.967 160.13ZM456.7 182.174L456.635 182.67L456.7 182.174ZM549.478 182.174L549.401 181.68L549.478 182.174ZM609.542 166.348L609.417 165.864L609.542 166.348ZM701.784 143.174L701.728 142.677L701.784 143.174ZM782.227 143.174L782.187 143.672L782.227 143.174ZM877.15 160.13L877.237 159.638L877.15 160.13ZM945.795 172L945.754 172.498L945.795 172ZM1011.22 172L1011.18 171.502L1011.22 172ZM1086.84 156.739L1087.02 157.204L1086.84 156.739ZM1129.74 134.13L1130.01 134.555C1130.02 134.547 1130.03 134.537 1130.05 134.527L1129.74 134.13ZM1164.6 104.174L1164.96 104.524L1164.6 104.174ZM1196.24 65.1739L1196.64 65.4728L1196.24 65.1739ZM1234.33 3C1234.33 4.47276 1235.53 5.66667 1237 5.66667C1238.47 5.66667 1239.67 4.47276 1239.67 3C1239.67 1.52724 1238.47 0.333333 1237 0.333333C1235.53 0.333333 1234.33 1.52724 1234.33 3ZM7.40653 208.902C7.64302 208.759 7.71918 208.452 7.57661 208.215C7.43405 207.979 7.12677 207.903 6.89027 208.045L7.40653 208.902ZM15.3242 203.038C15.0859 203.177 15.0058 203.483 15.1453 203.722C15.2848 203.96 15.5911 204.04 15.8294 203.901L15.3242 203.038ZM24.3009 199.007C24.5408 198.871 24.6245 198.565 24.4877 198.325C24.351 198.086 24.0457 198.002 23.8058 198.139L24.3009 199.007ZM32.3373 193.344C32.0957 193.477 32.0084 193.782 32.1422 194.023C32.2761 194.265 32.5804 194.352 32.8219 194.218L32.3373 193.344ZM41.4004 189.538C41.6436 189.407 41.735 189.104 41.6043 188.861C41.4737 188.617 41.1706 188.526 40.9273 188.657L41.4004 189.538ZM49.5915 184.086C49.3463 184.213 49.2504 184.514 49.3774 184.76C49.5044 185.005 49.8061 185.101 50.0513 184.974L49.5915 184.086ZM58.7697 180.554C59.0171 180.431 59.1183 180.131 58.9957 179.884C58.873 179.636 58.5731 179.535 58.3256 179.658L58.7697 180.554ZM67.1476 175.4C66.8976 175.517 66.7899 175.815 66.9072 176.065C67.0244 176.315 67.3221 176.423 67.5721 176.306L67.1476 175.4ZM76.4702 172.277C76.7234 172.166 76.8393 171.872 76.729 171.619C76.6188 171.365 76.3242 171.25 76.071 171.36L76.4702 172.277ZM85.1315 167.605C84.8743 167.706 84.7474 167.996 84.848 168.253C84.9486 168.51 85.2386 168.637 85.4958 168.536L85.1315 167.605ZM94.5642 165.245C94.8261 165.158 94.9673 164.874 94.8797 164.613C94.7921 164.351 94.5088 164.209 94.2469 164.297L94.5642 165.245ZM103.42 161.444C103.155 161.521 103.002 161.798 103.079 162.064C103.155 162.329 103.433 162.481 103.698 162.405L103.42 161.444ZM112.938 159.894C113.206 159.826 113.367 159.554 113.299 159.286C113.231 159.019 112.958 158.857 112.691 158.925L112.938 159.894ZM122.034 156.676C121.765 156.737 121.596 157.005 121.657 157.274C121.718 157.544 121.986 157.712 122.256 157.651L122.034 156.676ZM131.626 155.631C131.897 155.576 132.071 155.312 132.016 155.041C131.961 154.771 131.697 154.596 131.426 154.652L131.626 155.631ZM140.853 152.819C140.582 152.869 140.402 153.13 140.452 153.402C140.503 153.673 140.763 153.853 141.035 153.802L140.853 152.819ZM150.479 152.138C150.751 152.092 150.935 151.834 150.889 151.562C150.843 151.29 150.586 151.106 150.313 151.152L150.479 152.138ZM159.793 149.632C159.52 149.674 159.333 149.929 159.375 150.202C159.416 150.475 159.671 150.663 159.944 150.621L159.793 149.632ZM169.423 149.237C169.697 149.198 169.888 148.946 169.849 148.672C169.811 148.399 169.559 148.208 169.285 148.246L169.423 149.237ZM178.803 146.98C178.529 147.014 178.335 147.265 178.37 147.539C178.405 147.813 178.655 148.007 178.929 147.972L178.803 146.98ZM188.446 146.821C188.72 146.789 188.917 146.541 188.885 146.267C188.854 145.992 188.606 145.796 188.331 145.827L188.446 146.821ZM197.887 144.781C197.612 144.81 197.413 145.056 197.441 145.33C197.47 145.605 197.715 145.805 197.99 145.776L197.887 144.781ZM207.535 144.841C207.81 144.815 208.012 144.572 207.987 144.297C207.962 144.022 207.718 143.82 207.443 143.845L207.535 144.841ZM217.031 143.024C216.756 143.045 216.55 143.286 216.572 143.561C216.593 143.837 216.834 144.042 217.109 144.021L217.031 143.024ZM226.711 143.346C226.987 143.328 227.196 143.091 227.179 142.816C227.162 142.54 226.925 142.33 226.649 142.348L226.711 143.346ZM236.446 141.812C236.171 141.825 235.958 142.06 235.971 142.335C235.984 142.611 236.218 142.824 236.494 142.811L236.446 141.812ZM246.28 142.413C246.556 142.403 246.773 142.172 246.763 141.896C246.754 141.62 246.523 141.404 246.247 141.413L246.28 142.413ZM256.053 141.155C255.777 141.16 255.557 141.388 255.562 141.664C255.567 141.941 255.795 142.16 256.071 142.155L256.053 141.155ZM265.863 142.057C266.139 142.057 266.362 141.833 266.362 141.557C266.362 141.281 266.138 141.057 265.862 141.057L265.863 142.057ZM275.674 141.151C275.398 141.145 275.169 141.365 275.164 141.641C275.158 141.917 275.377 142.145 275.653 142.151L275.674 141.151ZM285.434 142.49C285.71 142.503 285.945 142.291 285.959 142.015C285.972 141.739 285.76 141.504 285.484 141.491L285.434 142.49ZM295.285 142.166C295.01 142.141 294.767 142.344 294.742 142.619C294.717 142.894 294.92 143.137 295.195 143.162L295.285 142.166ZM304.624 144.261C304.897 144.299 305.15 144.108 305.187 143.834C305.225 143.561 305.034 143.308 304.761 143.271L304.624 144.261ZM313.906 144.719C313.634 144.67 313.374 144.851 313.326 145.123C313.277 145.395 313.458 145.655 313.73 145.703L313.906 144.719ZM322.767 147.512C323.037 147.572 323.304 147.401 323.363 147.132C323.423 146.862 323.253 146.595 322.983 146.536L322.767 147.512ZM331.982 148.695C331.714 148.626 331.442 148.787 331.373 149.054C331.304 149.322 331.465 149.594 331.732 149.663L331.982 148.695ZM340.641 152.068C340.907 152.143 341.183 151.988 341.257 151.722C341.332 151.456 341.177 151.18 340.911 151.105L340.641 152.068ZM349.799 153.63C349.534 153.554 349.257 153.708 349.181 153.973C349.105 154.239 349.259 154.516 349.525 154.591L349.799 153.63ZM358.421 157.095C358.687 157.169 358.963 157.013 359.036 156.746C359.11 156.48 358.953 156.205 358.687 156.131L358.421 157.095ZM367.606 158.514C367.338 158.445 367.066 158.606 366.997 158.874C366.928 159.141 367.089 159.414 367.356 159.483L367.606 158.514ZM377.155 161.97C377.422 162.04 377.696 161.881 377.766 161.614C377.836 161.346 377.677 161.073 377.41 161.003L377.155 161.97ZM387.979 163.944C387.714 163.867 387.437 164.018 387.359 164.284C387.282 164.549 387.434 164.826 387.699 164.904L387.979 163.944ZM398.172 168.085C398.436 168.167 398.716 168.02 398.799 167.757C398.881 167.493 398.734 167.213 398.471 167.13L398.172 168.085ZM408.919 170.426C408.656 170.343 408.375 170.489 408.292 170.753C408.209 171.016 408.356 171.297 408.619 171.38L408.919 170.426ZM419.104 174.589C419.369 174.667 419.647 174.516 419.725 174.251C419.803 173.986 419.651 173.708 419.386 173.63L419.104 174.589ZM429.93 176.53C429.662 176.462 429.39 176.624 429.322 176.892C429.255 177.159 429.416 177.431 429.684 177.499L429.93 176.53ZM440.384 179.954C440.654 180.009 440.919 179.834 440.974 179.564C441.029 179.293 440.855 179.029 440.584 178.974L440.384 179.954ZM451.345 180.903C451.072 180.86 450.817 181.047 450.775 181.32C450.733 181.593 450.92 181.849 451.192 181.891L451.345 180.903ZM461.268 183.268C461.542 183.303 461.792 183.109 461.827 182.835C461.861 182.561 461.667 182.311 461.393 182.276L461.268 183.268ZM470.636 183.382C470.361 183.352 470.114 183.549 470.083 183.824C470.053 184.098 470.25 184.346 470.525 184.376L470.636 183.382ZM479.804 185.322C480.079 185.347 480.322 185.144 480.347 184.869C480.372 184.594 480.169 184.351 479.894 184.326L479.804 185.322ZM489.167 185.04C488.891 185.023 488.654 185.232 488.637 185.508C488.62 185.783 488.829 186.021 489.105 186.038L489.167 185.04ZM498.429 186.457C498.705 186.465 498.935 186.247 498.943 185.971C498.95 185.695 498.732 185.465 498.456 185.458L498.429 186.457ZM507.752 185.527C507.476 185.53 507.255 185.757 507.259 186.033C507.262 186.309 507.489 186.53 507.765 186.527L507.752 185.527ZM517.096 186.224C517.372 186.21 517.584 185.975 517.569 185.699C517.555 185.423 517.32 185.211 517.044 185.226L517.096 186.224ZM526.317 184.57C526.042 184.594 525.838 184.837 525.863 185.112C525.887 185.387 526.13 185.59 526.405 185.566L526.317 184.57ZM535.686 184.593C535.96 184.561 536.156 184.312 536.123 184.037C536.09 183.763 535.841 183.568 535.567 183.601L535.686 184.593ZM544.789 182.374C544.516 182.414 544.326 182.667 544.366 182.941C544.406 183.214 544.659 183.403 544.933 183.364L544.789 182.374ZM554.682 181.806C554.954 181.757 555.134 181.497 555.085 181.225C555.036 180.953 554.776 180.773 554.504 180.822L554.682 181.806ZM564.62 178.718C564.351 178.781 564.185 179.05 564.248 179.319C564.311 179.588 564.58 179.754 564.849 179.691L564.62 178.718ZM574.892 177.067C575.158 176.992 575.312 176.715 575.236 176.449C575.161 176.184 574.884 176.03 574.619 176.105L574.892 177.067ZM584.533 173.137C584.269 173.219 584.122 173.499 584.203 173.763C584.285 174.027 584.565 174.174 584.828 174.093L584.533 173.137ZM594.725 171.046C594.989 170.966 595.139 170.687 595.059 170.423C594.979 170.158 594.7 170.009 594.436 170.089L594.725 171.046ZM604.398 167.203C604.132 167.277 603.976 167.552 604.049 167.818C604.122 168.084 604.397 168.241 604.664 168.168L604.398 167.203ZM614.287 165.612C614.554 165.54 614.712 165.265 614.64 164.999C614.568 164.732 614.293 164.574 614.027 164.646L614.287 165.612ZM623.188 162.081C622.923 162.158 622.77 162.435 622.847 162.7C622.924 162.966 623.201 163.118 623.467 163.042L623.188 162.081ZM632.601 160.321C632.866 160.241 633.015 159.961 632.934 159.697C632.854 159.433 632.574 159.284 632.31 159.365L632.601 160.321ZM641.407 156.559C641.143 156.641 640.996 156.921 641.077 157.184C641.159 157.448 641.44 157.596 641.703 157.514L641.407 156.559ZM650.802 154.71C651.066 154.63 651.215 154.351 651.135 154.087C651.055 153.823 650.776 153.673 650.512 153.754L650.802 154.71ZM659.658 151.064C659.392 151.139 659.238 151.415 659.313 151.681C659.388 151.946 659.664 152.101 659.93 152.026L659.658 151.064ZM669.117 149.572C669.385 149.505 669.548 149.234 669.481 148.966C669.414 148.698 669.142 148.535 668.874 148.602L669.117 149.572ZM678.17 146.458C677.9 146.515 677.727 146.78 677.784 147.05C677.841 147.32 678.106 147.493 678.376 147.436L678.17 146.458ZM687.713 145.66C687.985 145.614 688.168 145.356 688.122 145.083C688.076 144.811 687.817 144.628 687.545 144.674L687.713 145.66ZM696.981 143.257C696.707 143.293 696.514 143.544 696.55 143.818C696.586 144.091 696.837 144.284 697.111 144.248L696.981 143.257ZM706.85 143.131C707.125 143.103 707.325 142.857 707.297 142.583C707.269 142.308 707.023 142.108 706.749 142.136L706.85 143.131ZM716.798 141.241C716.522 141.261 716.316 141.501 716.337 141.777C716.357 142.052 716.597 142.258 716.873 142.238L716.798 141.241ZM726.912 141.643C727.188 141.631 727.402 141.398 727.39 141.122C727.378 140.847 727.145 140.632 726.869 140.644L726.912 141.643ZM736.956 140.394C736.68 140.396 736.458 140.621 736.459 140.898C736.461 141.174 736.687 141.396 736.963 141.394L736.956 140.394ZM747.019 141.496C747.295 141.504 747.525 141.286 747.532 141.01C747.54 140.734 747.322 140.504 747.046 140.497L747.019 141.496ZM757.123 140.902C756.847 140.888 756.612 141.1 756.597 141.376C756.583 141.651 756.795 141.887 757.07 141.901L757.123 140.902ZM767.116 142.523C767.392 142.542 767.63 142.334 767.65 142.059C767.669 141.783 767.461 141.544 767.186 141.525L767.116 142.523ZM777.238 142.275C776.962 142.254 776.722 142.459 776.7 142.734C776.678 143.01 776.884 143.25 777.159 143.272L777.238 142.275ZM786.998 144.092C787.273 144.118 787.517 143.916 787.542 143.641C787.568 143.366 787.366 143.122 787.091 143.097L786.998 144.092ZM796.697 144.138C796.423 144.104 796.173 144.299 796.139 144.573C796.106 144.847 796.3 145.097 796.574 145.131L796.697 144.138ZM806.118 146.448C806.391 146.49 806.646 146.302 806.688 146.029C806.729 145.756 806.542 145.501 806.269 145.46L806.118 146.448ZM815.796 147.054C815.524 147.005 815.264 147.186 815.215 147.457C815.166 147.729 815.346 147.989 815.618 148.038L815.796 147.054ZM825.081 149.866C825.351 149.921 825.615 149.746 825.67 149.475C825.725 149.205 825.551 148.941 825.28 148.886L825.081 149.866ZM834.726 150.882C834.456 150.823 834.19 150.994 834.132 151.264C834.073 151.534 834.244 151.8 834.514 151.859L834.726 150.882ZM843.937 153.927C844.207 153.986 844.473 153.816 844.533 153.546C844.592 153.276 844.422 153.01 844.152 152.95L843.937 153.927ZM853.575 155C853.305 154.942 853.039 155.115 852.981 155.385C852.924 155.655 853.096 155.92 853.366 155.978L853.575 155ZM862.819 157.94C863.09 157.995 863.354 157.819 863.408 157.549C863.462 157.278 863.287 157.014 863.016 156.96L862.819 157.94ZM872.482 158.783C872.21 158.733 871.949 158.913 871.899 159.184C871.849 159.456 872.029 159.717 872.3 159.767L872.482 158.783ZM882.781 161.66C883.052 161.711 883.313 161.532 883.364 161.261C883.415 160.989 883.236 160.728 882.965 160.677L882.781 161.66ZM894.369 162.933C894.099 162.877 893.835 163.051 893.779 163.321C893.723 163.592 893.897 163.856 894.167 163.912L894.369 162.933ZM905.533 166.295C905.804 166.351 906.069 166.178 906.125 165.907C906.182 165.637 906.008 165.372 905.738 165.316L905.533 166.295ZM917.119 167.596C916.847 167.545 916.586 167.724 916.535 167.995C916.484 168.267 916.663 168.528 916.934 168.579L917.119 167.596ZM928.406 170.512C928.679 170.552 928.933 170.363 928.974 170.09C929.014 169.817 928.825 169.563 928.552 169.522L928.406 170.512ZM940.056 170.963C939.781 170.935 939.535 171.135 939.507 171.409C939.479 171.684 939.678 171.93 939.953 171.958L940.056 170.963ZM951.207 172.934C951.482 172.955 951.723 172.749 951.744 172.474C951.765 172.199 951.559 171.958 951.283 171.937L951.207 172.934ZM962.169 172.665C961.893 172.65 961.657 172.861 961.642 173.137C961.627 173.412 961.838 173.648 962.113 173.664L962.169 172.665ZM973.039 174.098C973.315 174.105 973.544 173.886 973.55 173.61C973.556 173.334 973.338 173.105 973.062 173.099L973.039 174.098ZM983.962 173.127C983.686 173.132 983.466 173.36 983.471 173.636C983.476 173.912 983.704 174.132 983.98 174.127L983.962 173.127ZM994.909 173.725C995.184 173.71 995.396 173.475 995.381 173.199C995.366 172.923 995.13 172.712 994.854 172.727L994.909 173.725ZM1005.73 171.975C1005.46 171.998 1005.25 172.239 1005.28 172.514C1005.3 172.789 1005.54 172.994 1005.82 172.972L1005.73 171.975ZM1016.1 172.055C1016.37 172.03 1016.57 171.786 1016.55 171.512C1016.52 171.237 1016.28 171.034 1016.01 171.059L1016.1 172.055ZM1025.64 170.144C1025.37 170.171 1025.17 170.416 1025.2 170.691C1025.22 170.966 1025.47 171.166 1025.74 171.139L1025.64 170.144ZM1035.38 170.093C1035.65 170.06 1035.85 169.811 1035.82 169.537C1035.78 169.263 1035.53 169.067 1035.26 169.1L1035.38 170.093ZM1044.84 167.794C1044.56 167.836 1044.38 168.092 1044.42 168.365C1044.46 168.637 1044.72 168.824 1044.99 168.782L1044.84 167.794ZM1054.54 167.065C1054.81 167.009 1054.99 166.745 1054.93 166.474C1054.88 166.204 1054.61 166.03 1054.34 166.085L1054.54 167.065ZM1063.74 163.882C1063.47 163.953 1063.31 164.226 1063.39 164.493C1063.46 164.76 1063.73 164.92 1064 164.849L1063.74 163.882ZM1073.31 162.122C1073.58 162.038 1073.72 161.756 1073.64 161.493C1073.55 161.23 1073.27 161.086 1073.01 161.17L1073.31 162.122ZM1082.14 158.003C1081.88 158.1 1081.75 158.387 1081.84 158.646C1081.94 158.905 1082.23 159.037 1082.48 158.941L1082.14 158.003ZM1092.63 154.832C1092.88 154.719 1092.99 154.423 1092.88 154.171C1092.77 153.919 1092.47 153.807 1092.22 153.92L1092.63 154.832ZM1103.11 148.63C1102.87 148.756 1102.77 149.058 1102.9 149.303C1103.03 149.549 1103.33 149.645 1103.57 149.518L1103.11 148.63ZM1114.28 143.755C1114.52 143.62 1114.61 143.316 1114.47 143.075C1114.34 142.834 1114.03 142.747 1113.79 142.882L1114.28 143.755ZM1124.29 136.833C1124.06 136.974 1123.98 137.281 1124.12 137.518C1124.26 137.756 1124.57 137.834 1124.8 137.693L1124.29 136.833ZM1134.58 130.977C1134.79 130.806 1134.83 130.491 1134.66 130.275C1134.48 130.059 1134.17 130.022 1133.95 130.194L1134.58 130.977ZM1142.88 122.967C1142.67 123.143 1142.64 123.458 1142.81 123.671C1142.99 123.883 1143.3 123.913 1143.52 123.737L1142.88 122.967ZM1152.3 116.292C1152.51 116.11 1152.53 115.795 1152.35 115.586C1152.17 115.378 1151.85 115.356 1151.64 115.538L1152.3 116.292ZM1160.16 107.834C1159.96 108.024 1159.95 108.341 1160.14 108.541C1160.33 108.742 1160.64 108.75 1160.84 108.56L1160.16 107.834ZM1167.88 101.499C1168.07 101.299 1168.06 100.982 1167.86 100.792C1167.66 100.602 1167.34 100.611 1167.15 100.811L1167.88 101.499ZM1172.79 94.6439C1172.61 94.8512 1172.63 95.1671 1172.84 95.3496C1173.04 95.532 1173.36 95.5118 1173.54 95.3045L1172.79 94.6439ZM1178.96 88.8919C1179.14 88.6775 1179.1 88.3626 1178.89 88.1885C1178.67 88.0145 1178.36 88.0472 1178.18 88.2616L1178.96 88.8919ZM1183.35 81.6824C1183.18 81.9021 1183.22 82.2158 1183.44 82.3831C1183.66 82.5505 1183.97 82.5081 1184.14 82.2884L1183.35 81.6824ZM1189.17 75.5772C1189.33 75.3552 1189.28 75.0421 1189.06 74.8779C1188.84 74.7137 1188.53 74.7605 1188.36 74.9825L1189.17 75.5772ZM1193.34 68.2435C1193.17 68.4654 1193.22 68.7786 1193.44 68.9429C1193.67 69.1072 1193.98 69.0604 1194.14 68.8385L1193.34 68.2435ZM1199.39 61.7272C1199.55 61.5035 1199.5 61.1909 1199.28 61.029C1199.06 60.8672 1198.74 60.9173 1198.58 61.1411L1199.39 61.7272ZM1203.94 53.554C1203.79 53.7811 1203.84 54.0925 1204.07 54.2497C1204.3 54.4069 1204.61 54.3503 1204.77 54.1232L1203.94 53.554ZM1210 46.4317C1210.16 46.2024 1210.1 45.8918 1209.87 45.738C1209.64 45.5841 1209.33 45.6453 1209.17 45.8746L1210 46.4317ZM1214.31 38.128C1214.16 38.359 1214.22 38.6689 1214.45 38.8202C1214.68 38.9715 1214.99 38.9069 1215.14 38.6759L1214.31 38.128ZM1220.2 30.871C1220.35 30.6386 1220.29 30.3293 1220.05 30.1801C1219.82 30.0308 1219.51 30.0982 1219.36 30.3306L1220.2 30.871ZM1224.35 22.4912C1224.21 22.7247 1224.28 23.0335 1224.51 23.1809C1224.74 23.3283 1225.05 23.2586 1225.2 23.0251L1224.35 22.4912ZM1230.14 15.1409C1230.28 14.9063 1230.21 14.598 1229.98 14.4523C1229.74 14.3065 1229.43 14.3785 1229.29 14.613L1230.14 15.1409ZM1234.17 6.69897C1234.02 6.93458 1234.1 7.24233 1234.33 7.38635C1234.57 7.53036 1234.88 7.45611 1235.02 7.22049L1234.17 6.69897ZM3 211C3.26353 211.425 3.26353 211.425 3.26354 211.425C3.26355 211.425 3.26356 211.425 3.26358 211.425C3.26362 211.425 3.26369 211.425 3.26377 211.425C3.26394 211.425 3.2642 211.425 3.26455 211.424C3.26525 211.424 3.26632 211.423 3.26775 211.422C3.27061 211.421 3.27491 211.418 3.28065 211.414C3.29214 211.407 3.30937 211.397 3.33228 211.382C3.37809 211.354 3.44659 211.312 3.53712 211.256C3.71818 211.144 3.98737 210.979 4.33953 210.763C5.04384 210.332 6.07998 209.701 7.40653 208.902L6.89027 208.045C5.56168 208.846 4.52362 209.478 3.81751 209.91C3.46446 210.126 3.1944 210.293 3.0125 210.405C2.92155 210.461 2.85264 210.503 2.80642 210.532C2.78331 210.546 2.76587 210.557 2.75418 210.564C2.74834 210.568 2.74394 210.57 2.74098 210.572C2.7395 210.573 2.73839 210.574 2.73763 210.574C2.73726 210.575 2.73697 210.575 2.73678 210.575C2.73668 210.575 2.7366 210.575 2.73655 210.575C2.73653 210.575 2.73651 210.575 2.73649 210.575C2.73648 210.575 2.73647 210.575 3 211ZM15.8294 203.901C18.3642 202.417 21.2107 200.768 24.3009 199.007L23.8058 198.139C20.7119 199.902 17.862 201.552 15.3242 203.038L15.8294 203.901ZM32.8219 194.218C35.5757 192.693 38.4466 191.124 41.4004 189.538L40.9273 188.657C37.9694 190.245 35.0946 191.816 32.3373 193.344L32.8219 194.218ZM50.0513 184.974C52.9232 183.487 55.8385 182.006 58.7697 180.554L58.3256 179.658C55.3887 181.113 52.4681 182.596 49.5915 184.086L50.0513 184.974ZM67.5721 176.306C70.5606 174.905 73.5363 173.554 76.4702 172.277L76.071 171.36C73.1276 172.641 70.1434 173.996 67.1476 175.4L67.5721 176.306ZM85.4958 168.536C87.0372 167.933 88.5566 167.359 90.0493 166.818L89.7082 165.878C88.2071 166.422 86.6799 166.999 85.1315 167.605L85.4958 168.536ZM90.0493 166.818C91.5247 166.283 93.0307 165.758 94.5642 165.245L94.2469 164.297C92.7059 164.813 91.192 165.34 89.7082 165.878L90.0493 166.818ZM103.698 162.405C106.712 161.532 109.798 160.695 112.938 159.894L112.691 158.925C109.542 159.729 106.445 160.568 103.42 161.444L103.698 162.405ZM122.256 157.651C125.355 156.947 128.484 156.274 131.626 155.631L131.426 154.652C128.277 155.295 125.141 155.97 122.034 156.676L122.256 157.651ZM141.035 153.802C144.194 153.218 147.348 152.664 150.479 152.138L150.313 151.152C147.178 151.678 144.018 152.234 140.853 152.819L141.035 153.802ZM159.944 150.621C163.157 150.13 166.323 149.669 169.423 149.237L169.285 148.246C166.181 148.679 163.01 149.14 159.793 149.632L159.944 150.621ZM178.929 147.972C182.223 147.554 185.405 147.171 188.446 146.821L188.331 145.827C185.287 146.178 182.101 146.561 178.803 146.98L178.929 147.972ZM197.99 145.776C201.485 145.413 204.688 145.103 207.535 144.841L207.443 143.845C204.593 144.108 201.386 144.418 197.887 144.781L197.99 145.776ZM217.109 144.021C218.63 143.901 219.812 143.814 220.615 143.757C221.016 143.729 221.322 143.707 221.528 143.694C221.63 143.687 221.708 143.681 221.76 143.678C221.786 143.676 221.806 143.675 221.819 143.674C221.825 143.674 221.83 143.673 221.833 143.673C221.835 143.673 221.836 143.673 221.837 143.673C221.837 143.673 221.837 143.673 221.838 143.673C221.838 143.673 221.838 143.673 221.838 143.673C221.838 143.673 221.838 143.673 221.838 143.673C221.838 143.673 221.838 143.673 221.806 143.174C221.774 142.675 221.774 142.675 221.774 142.675C221.773 142.675 221.773 142.675 221.773 142.675C221.773 142.675 221.773 142.675 221.773 142.675C221.773 142.675 221.773 142.675 221.772 142.675C221.771 142.675 221.77 142.675 221.768 142.675C221.765 142.676 221.76 142.676 221.753 142.676C221.74 142.677 221.72 142.678 221.694 142.68C221.642 142.684 221.563 142.689 221.46 142.696C221.253 142.71 220.946 142.731 220.544 142.76C219.739 142.817 218.554 142.904 217.031 143.024L217.109 144.021ZM221.806 143.174C221.844 143.672 221.844 143.672 221.844 143.672C221.844 143.672 221.844 143.672 221.844 143.672C221.844 143.672 221.844 143.672 221.844 143.672C221.844 143.672 221.844 143.672 221.845 143.672C221.846 143.672 221.847 143.672 221.849 143.672C221.852 143.672 221.857 143.671 221.864 143.671C221.878 143.67 221.898 143.668 221.925 143.666C221.98 143.662 222.061 143.656 222.169 143.648C222.383 143.633 222.702 143.61 223.118 143.581C223.948 143.523 225.166 143.442 226.711 143.346L226.649 142.348C225.101 142.444 223.881 142.526 223.048 142.584C222.632 142.612 222.312 142.635 222.096 142.651C221.988 142.659 221.906 142.665 221.851 142.669C221.824 142.671 221.803 142.673 221.789 142.674C221.782 142.674 221.777 142.675 221.773 142.675C221.771 142.675 221.77 142.675 221.769 142.675C221.769 142.675 221.768 142.675 221.768 142.675C221.768 142.675 221.768 142.675 221.768 142.675C221.768 142.675 221.768 142.675 221.768 142.675C221.768 142.675 221.768 142.675 221.806 143.174ZM236.494 142.811C239.451 142.67 242.747 142.532 246.28 142.413L246.247 141.413C242.708 141.533 239.407 141.671 236.446 141.812L236.494 142.811ZM256.071 142.155C259.255 142.096 262.538 142.06 265.863 142.057L265.862 141.057C262.531 141.06 259.242 141.096 256.053 141.155L256.071 142.155ZM275.653 142.151C278.946 142.22 282.225 142.33 285.434 142.49L285.484 141.491C282.264 141.331 278.975 141.22 275.674 141.151L275.653 142.151ZM295.195 143.162C296.853 143.313 298.473 143.482 300.044 143.67L300.163 142.677C298.581 142.488 296.952 142.318 295.285 142.166L295.195 143.162ZM300.044 143.67C301.61 143.858 303.135 144.055 304.624 144.261L304.761 143.271C303.266 143.064 301.734 142.866 300.163 142.677L300.044 143.67ZM313.73 145.703C316.867 146.265 319.862 146.87 322.767 147.512L322.983 146.536C320.065 145.891 317.057 145.283 313.906 144.719L313.73 145.703ZM331.732 149.663C334.717 150.431 337.665 151.235 340.641 152.068L340.911 151.105C337.93 150.271 334.976 149.465 331.982 148.695L331.732 149.663ZM349.525 154.591C352.392 155.409 355.341 156.246 358.421 157.095L358.687 156.131C355.611 155.283 352.666 154.447 349.799 153.63L349.525 154.591ZM367.356 159.483C368.818 159.859 370.313 160.237 371.847 160.616L372.086 159.645C370.556 159.267 369.064 158.89 367.606 158.514L367.356 159.483ZM371.847 160.616C373.661 161.064 375.429 161.516 377.155 161.97L377.41 161.003C375.679 160.547 373.906 160.094 372.086 159.645L371.847 160.616ZM387.699 164.904C391.328 165.966 394.798 167.03 398.172 168.085L398.471 167.13C395.093 166.075 391.617 165.008 387.979 163.944L387.699 164.904ZM408.619 171.38C412.12 172.481 415.588 173.556 419.104 174.589L419.386 173.63C415.879 172.599 412.417 171.526 408.919 170.426L408.619 171.38ZM429.684 177.499C433.12 178.371 436.665 179.194 440.384 179.954L440.584 178.974C436.881 178.217 433.352 177.399 429.93 176.53L429.684 177.499ZM451.192 181.891C452.961 182.165 454.774 182.425 456.635 182.67L456.765 181.678C454.912 181.434 453.107 181.175 451.345 180.903L451.192 181.891ZM456.635 182.67C458.207 182.877 459.75 183.076 461.268 183.268L461.393 182.276C459.877 182.084 458.336 181.885 456.765 181.678L456.635 182.67ZM470.525 184.376C473.713 184.733 476.796 185.049 479.804 185.322L479.894 184.326C476.895 184.054 473.818 183.738 470.636 183.382L470.525 184.376ZM489.105 186.038C492.257 186.234 495.353 186.375 498.429 186.457L498.456 185.458C495.392 185.375 492.308 185.235 489.167 185.04L489.105 186.038ZM507.765 186.527C510.845 186.489 513.943 186.389 517.096 186.224L517.044 185.226C513.904 185.39 510.819 185.489 507.752 185.527L507.765 186.527ZM526.405 185.566C529.414 185.299 532.498 184.976 535.686 184.593L535.567 183.601C532.389 183.982 529.315 184.304 526.317 184.57L526.405 185.566ZM544.933 183.364C546.447 183.144 547.987 182.912 549.555 182.668L549.401 181.68C547.836 181.924 546.3 182.155 544.789 182.374L544.933 183.364ZM549.555 182.668C551.323 182.393 553.029 182.105 554.682 181.806L554.504 180.822C552.859 181.12 551.161 181.406 549.401 181.68L549.555 182.668ZM564.849 179.691C568.348 178.867 571.656 177.988 574.892 177.067L574.619 176.105C571.394 177.023 568.101 177.897 564.62 178.718L564.849 179.691ZM584.828 174.093C588.036 173.102 591.293 172.083 594.725 171.046L594.436 170.089C591 171.127 587.736 172.148 584.533 173.137L584.828 174.093ZM604.664 168.168C606.279 167.723 607.944 167.278 609.667 166.832L609.417 165.864C607.688 166.311 606.018 166.758 604.398 167.203L604.664 168.168ZM609.667 166.832C611.238 166.426 612.777 166.019 614.287 165.612L614.027 164.646C612.52 165.052 610.984 165.458 609.417 165.864L609.667 166.832ZM623.467 163.042C626.616 162.129 629.651 161.22 632.601 160.321L632.31 159.365C629.362 160.263 626.333 161.17 623.188 162.081L623.467 163.042ZM641.703 157.514C644.782 156.558 647.8 155.621 650.802 154.71L650.512 153.754C647.506 154.665 644.485 155.603 641.407 156.559L641.703 157.514ZM659.93 152.026C662.952 151.172 666 150.352 669.117 149.572L668.874 148.602C665.746 149.384 662.688 150.207 659.658 151.064L659.93 152.026ZM678.376 147.436C681.385 146.802 684.486 146.208 687.713 145.66L687.545 144.674C684.305 145.225 681.191 145.821 678.17 146.458L678.376 147.436ZM697.111 144.248C698.656 144.046 700.231 143.853 701.84 143.671L701.728 142.677C700.113 142.86 698.531 143.053 696.981 143.257L697.111 144.248ZM701.84 143.671C703.549 143.477 705.217 143.298 706.85 143.131L706.749 142.136C705.112 142.303 703.44 142.483 701.728 142.677L701.84 143.671ZM716.873 142.238C720.341 141.977 723.669 141.781 726.912 141.643L726.869 140.644C723.615 140.782 720.276 140.979 716.798 141.241L716.873 142.238ZM736.963 141.394C740.325 141.371 743.654 141.407 747.019 141.496L747.046 140.497C743.671 140.407 740.33 140.371 736.956 140.394L736.963 141.394ZM757.07 141.901C760.314 142.072 763.644 142.281 767.116 142.523L767.186 141.525C763.709 141.283 760.373 141.074 757.123 140.902L757.07 141.901ZM777.159 143.272C778.798 143.401 780.472 143.534 782.187 143.672L782.267 142.676C780.552 142.537 778.877 142.404 777.238 142.275L777.159 143.272ZM782.187 143.672C783.823 143.804 785.425 143.944 786.998 144.092L787.091 143.097C785.514 142.948 783.907 142.808 782.267 142.676L782.187 143.672ZM796.574 145.131C799.867 145.536 803.037 145.977 806.118 146.448L806.269 145.46C803.179 144.987 799.999 144.544 796.697 144.138L796.574 145.131ZM815.618 148.038C818.824 148.619 821.964 149.231 825.081 149.866L825.28 148.886C822.158 148.25 819.01 147.637 815.796 147.054L815.618 148.038ZM834.514 151.859C837.621 152.534 840.747 153.225 843.937 153.927L844.152 152.95C840.964 152.249 837.835 151.557 834.726 150.882L834.514 151.859ZM853.366 155.978C856.421 156.631 859.561 157.287 862.819 157.94L863.016 156.96C859.763 156.307 856.627 155.652 853.575 155L853.366 155.978ZM872.3 159.767C873.858 160.054 875.445 160.339 877.064 160.623L877.237 159.638C875.621 159.355 874.037 159.07 872.482 158.783L872.3 159.767ZM877.064 160.623C879.031 160.968 880.934 161.314 882.781 161.66L882.965 160.677C881.114 160.33 879.208 159.984 877.237 159.638L877.064 160.623ZM894.167 163.912C898.107 164.725 901.848 165.524 905.533 166.295L905.738 165.316C902.059 164.546 898.31 163.746 894.369 162.933L894.167 163.912ZM916.934 168.579C920.64 169.274 924.42 169.923 928.406 170.512L928.552 169.522C924.581 168.936 920.814 168.289 917.119 167.596L916.934 168.579ZM939.953 171.958C941.826 172.152 943.756 172.332 945.754 172.498L945.837 171.502C943.846 171.336 941.922 171.156 940.056 170.963L939.953 171.958ZM945.754 172.498C947.628 172.654 949.443 172.799 951.207 172.934L951.283 171.937C949.521 171.803 947.709 171.657 945.837 171.502L945.754 172.498ZM962.113 173.664C965.894 173.873 969.497 174.019 973.039 174.098L973.062 173.099C969.532 173.019 965.94 172.874 962.169 172.665L962.113 173.664ZM983.98 174.127C987.523 174.065 991.127 173.932 994.909 173.725L994.854 172.727C991.084 172.933 987.492 173.065 983.962 173.127L983.98 174.127ZM1005.82 172.972C1007.58 172.827 1009.39 172.67 1011.27 172.498L1011.18 171.502C1009.31 171.673 1007.5 171.831 1005.73 171.975L1005.82 172.972ZM1011.27 172.498C1012.91 172.347 1014.52 172.2 1016.1 172.055L1016.01 171.059C1014.43 171.204 1012.82 171.351 1011.18 171.502L1011.27 172.498ZM1025.74 171.139C1029.07 170.807 1032.27 170.466 1035.38 170.093L1035.26 169.1C1032.16 169.472 1028.97 169.812 1025.64 170.144L1025.74 171.139ZM1044.99 168.782C1048.2 168.282 1051.37 167.719 1054.54 167.065L1054.34 166.085C1051.18 166.736 1048.03 167.296 1044.84 167.794L1044.99 168.782ZM1064 164.849C1067.03 164.049 1070.12 163.148 1073.31 162.122L1073.01 161.17C1069.83 162.19 1066.76 163.087 1063.74 163.882L1064 164.849ZM1082.48 158.941C1083.97 158.39 1085.48 157.811 1087.02 157.204L1086.66 156.274C1085.12 156.879 1083.61 157.455 1082.14 158.003L1082.48 158.941ZM1087.02 157.204C1088.82 156.495 1090.71 155.696 1092.63 154.832L1092.22 153.92C1090.31 154.778 1088.44 155.571 1086.66 156.274L1087.02 157.204ZM1103.57 149.518C1107.29 147.6 1110.94 145.62 1114.28 143.755L1113.79 142.882C1110.46 144.743 1106.82 146.717 1103.11 148.63L1103.57 149.518ZM1124.8 137.693C1126.42 136.737 1127.72 135.952 1128.61 135.407C1129.06 135.135 1129.41 134.922 1129.65 134.777C1129.76 134.705 1129.85 134.649 1129.91 134.612C1129.94 134.593 1129.97 134.579 1129.98 134.57C1129.99 134.565 1130 134.561 1130 134.559C1130 134.558 1130 134.557 1130 134.556C1130 134.556 1130.01 134.556 1130.01 134.556C1130.01 134.556 1130.01 134.555 1130.01 134.555C1130.01 134.555 1130.01 134.555 1130.01 134.555C1130.01 134.555 1130.01 134.555 1129.74 134.13C1129.48 133.706 1129.48 133.706 1129.48 133.706C1129.48 133.706 1129.48 133.706 1129.48 133.706C1129.48 133.706 1129.48 133.706 1129.48 133.706C1129.48 133.706 1129.48 133.706 1129.48 133.706C1129.48 133.707 1129.48 133.708 1129.47 133.709C1129.47 133.711 1129.46 133.715 1129.46 133.719C1129.44 133.729 1129.42 133.743 1129.39 133.761C1129.33 133.798 1129.24 133.853 1129.12 133.925C1128.89 134.069 1128.54 134.281 1128.09 134.553C1127.2 135.096 1125.9 135.879 1124.29 136.833L1124.8 137.693ZM1129.74 134.13C1130.05 134.527 1130.05 134.527 1130.05 134.527C1130.05 134.527 1130.05 134.527 1130.05 134.527C1130.05 134.527 1130.05 134.527 1130.05 134.527C1130.05 134.526 1130.05 134.526 1130.05 134.526C1130.05 134.525 1130.05 134.524 1130.05 134.523C1130.06 134.52 1130.06 134.516 1130.07 134.511C1130.08 134.501 1130.1 134.485 1130.13 134.465C1130.18 134.424 1130.26 134.363 1130.36 134.282C1130.57 134.122 1130.88 133.886 1131.27 133.58C1132.05 132.969 1133.18 132.082 1134.58 130.977L1133.95 130.194C1132.56 131.297 1131.43 132.182 1130.65 132.791C1130.26 133.096 1129.96 133.332 1129.75 133.492C1129.65 133.571 1129.57 133.632 1129.52 133.673C1129.49 133.693 1129.47 133.708 1129.46 133.719C1129.45 133.724 1129.45 133.728 1129.44 133.73C1129.44 133.732 1129.44 133.732 1129.44 133.733C1129.44 133.733 1129.44 133.734 1129.44 133.734C1129.44 133.734 1129.44 133.734 1129.44 133.734C1129.44 133.734 1129.44 133.734 1129.44 133.734C1129.44 133.734 1129.44 133.734 1129.74 134.13ZM1143.52 123.737C1146.31 121.429 1149.31 118.896 1152.3 116.292L1151.64 115.538C1148.66 118.135 1145.66 120.662 1142.88 122.967L1143.52 123.737ZM1160.84 108.56C1162.29 107.186 1163.68 105.833 1164.96 104.524L1164.24 103.824C1162.97 105.123 1161.6 106.467 1160.16 107.834L1160.84 108.56ZM1164.96 104.524C1165.97 103.492 1166.94 102.485 1167.88 101.499L1167.15 100.811C1166.22 101.793 1165.25 102.795 1164.24 103.824L1164.96 104.524ZM1173.54 95.3045C1175.46 93.1215 1177.25 91.0042 1178.96 88.8919L1178.18 88.2616C1176.48 90.3643 1174.7 92.4715 1172.79 94.6439L1173.54 95.3045ZM1184.14 82.2884C1185.79 80.1281 1187.44 77.9108 1189.17 75.5772L1188.36 74.9825C1186.64 77.3148 1184.99 79.5277 1183.35 81.6824L1184.14 82.2884ZM1194.14 68.8385C1194.95 67.7484 1195.78 66.628 1196.64 65.4728L1195.84 64.875C1194.98 66.0313 1194.15 67.1527 1193.34 68.2435L1194.14 68.8385ZM1196.64 65.4728C1197.54 64.2636 1198.46 63.0125 1199.39 61.7272L1198.58 61.1411C1197.65 62.4229 1196.74 63.67 1195.84 64.875L1196.64 65.4728ZM1204.77 54.1232C1206.51 51.6098 1208.26 49.0309 1210 46.4317L1209.17 45.8746C1207.43 48.4703 1205.68 51.0452 1203.94 53.554L1204.77 54.1232ZM1215.14 38.6759C1216.87 36.033 1218.57 33.4154 1220.2 30.871L1219.36 30.3306C1217.73 32.8728 1216.04 35.4879 1214.31 38.128L1215.14 38.6759ZM1225.2 23.0251C1226.99 20.1847 1228.65 17.528 1230.14 15.1409L1229.29 14.613C1227.81 16.9983 1226.15 19.6531 1224.35 22.4912L1225.2 23.0251ZM1235.02 7.22049C1235.79 5.96546 1236.39 4.97499 1236.8 4.29818C1237 3.95977 1237.16 3.69977 1237.27 3.52432C1237.32 3.4366 1237.36 3.37001 1237.39 3.32533C1237.4 3.30298 1237.41 3.28612 1237.42 3.27482C1237.42 3.26918 1237.42 3.26492 1237.43 3.26207C1237.43 3.26065 1237.43 3.25957 1237.43 3.25885C1237.43 3.25849 1237.43 3.25822 1237.43 3.25804C1237.43 3.25795 1237.43 3.25788 1237.43 3.25783C1237.43 3.2578 1237.43 3.25779 1237.43 3.25777C1237.43 3.25776 1237.43 3.25775 1237 3C1236.57 2.74225 1236.57 2.74225 1236.57 2.74226C1236.57 2.74227 1236.57 2.74228 1236.57 2.7423C1236.57 2.74235 1236.57 2.74241 1236.57 2.74249C1236.57 2.74266 1236.57 2.74292 1236.57 2.74327C1236.57 2.74396 1236.57 2.74501 1236.57 2.7464C1236.57 2.7492 1236.56 2.7534 1236.56 2.75899C1236.55 2.77017 1236.54 2.78693 1236.53 2.80916C1236.5 2.85361 1236.46 2.91997 1236.41 3.00746C1236.31 3.18245 1236.15 3.44196 1235.94 3.77987C1235.53 4.45569 1234.93 5.44509 1234.17 6.69897L1235.02 7.22049Z" fill="#62E178"/>
</svg>
