<svg width="48" height="47" viewBox="0 0 48 47" fill="none" xmlns="http://www.w3.org/2000/svg">
<rect width="48" height="47" rx="10" fill="url(#paint0_linear_14_118)"/>
<path d="M17.2501 39H31.7501C33.032 39 34.2613 38.4908 35.1678 37.5843C36.0742 36.6779 36.5834 35.4485 36.5834 34.1667V22.8772C36.5813 22.0376 36.4031 21.2077 36.0602 20.4412C36.0408 20.3995 36.0186 20.3591 35.9937 20.3204C35.7026 19.6858 35.3031 19.1068 34.8132 18.6094L27.9789 11.769C27.481 11.2791 26.9016 10.8796 26.2667 10.5885C26.2244 10.5667 26.1869 10.5401 26.1458 10.522C25.378 10.1796 24.5469 10.0018 23.7062 10H17.2501C15.9682 10 14.7388 10.5092 13.8324 11.4157C12.926 12.3221 12.4167 13.5515 12.4167 14.8333V34.1667C12.4167 35.4485 12.926 36.6779 13.8324 37.5843C14.7388 38.4908 15.9682 39 17.2501 39ZM32.4582 19.6667H29.3334C28.6925 19.6667 28.0778 19.4121 27.6246 18.9588C27.1714 18.5056 26.9167 17.8909 26.9167 17.25V14.1253L32.4582 19.6667ZM14.8334 14.8333C14.8334 14.1924 15.088 13.5777 15.5412 13.1245C15.9945 12.6713 16.6091 12.4167 17.2501 12.4167H23.7062C23.9735 12.4187 24.2397 12.4503 24.5001 12.5109V17.25C24.5001 18.5319 25.0093 19.7613 25.9157 20.6677C26.8222 21.5741 28.0515 22.0833 29.3334 22.0833H34.0701C34.1319 22.3435 34.1644 22.6098 34.1667 22.8772V34.1667C34.1667 34.8076 33.9121 35.4223 33.4589 35.8755C33.0057 36.3287 32.391 36.5833 31.7501 36.5833H17.2501C16.6091 36.5833 15.9945 36.3287 15.5412 35.8755C15.088 35.4223 14.8334 34.8076 14.8334 34.1667V14.8333Z" fill="#232323"/>
<path d="M18.4583 34.1667H30.5417C30.8621 34.1667 31.1695 34.0394 31.3961 33.8128C31.6227 33.5861 31.75 33.2788 31.75 32.9583C31.75 32.6379 31.6227 32.3305 31.3961 32.1039C31.1695 31.8773 30.8621 31.75 30.5417 31.75H18.4583C18.1379 31.75 17.8305 31.8773 17.6039 32.1039C17.3773 32.3305 17.25 32.6379 17.25 32.9583C17.25 33.2788 17.3773 33.5861 17.6039 33.8128C17.8305 34.0394 18.1379 34.1667 18.4583 34.1667Z" fill="#232323"/>
<path d="M18.4583 29.3332H23.2917C23.6121 29.3332 23.9195 29.2059 24.1461 28.9793C24.3727 28.7527 24.5 28.4453 24.5 28.1248C24.5 27.8044 24.3727 27.497 24.1461 27.2704C23.9195 27.0438 23.6121 26.9165 23.2917 26.9165H18.4583C18.1379 26.9165 17.8305 27.0438 17.6039 27.2704C17.3773 27.497 17.25 27.8044 17.25 28.1248C17.25 28.4453 17.3773 28.7527 17.6039 28.9793C17.8305 29.2059 18.1379 29.3332 18.4583 29.3332Z" fill="#232323"/>
<defs>
<linearGradient id="paint0_linear_14_118" x1="24" y1="0" x2="24" y2="47" gradientUnits="userSpaceOnUse">
<stop stop-color="#81EE92"/>
<stop offset="0.0001" stop-color="#7AF28D"/>
<stop offset="1" stop-color="#22B342"/>
</linearGradient>
</defs>
</svg>
