<svg width="48" height="47" viewBox="0 0 48 47" fill="none" xmlns="http://www.w3.org/2000/svg">
<rect width="48" height="47" rx="10" fill="url(#paint0_linear_14_120)"/>
<path d="M36 33H12C11.4696 33 10.9609 33.2107 10.5858 33.5858C10.2107 33.9609 10 34.4696 10 35V36C10 36.5304 10.2107 37.0391 10.5858 37.4142C10.9609 37.7893 11.4696 38 12 38H36C36.5304 38 37.0391 37.7893 37.4142 37.4142C37.7893 37.0391 38 36.5304 38 36V35C38 34.4696 37.7893 33.9609 37.4142 33.5858C37.0391 33.2107 36.5304 33 36 33ZM36 36H12V35H36V36ZM14 28.5C14 27.5717 14.3687 26.6815 15.0251 26.0251C15.6815 25.3687 16.5717 25 17.5 25H19C19.2652 25 19.5196 25.1054 19.7071 25.2929C19.8946 25.4804 20 25.7348 20 26C20 26.2652 19.8946 26.5196 19.7071 26.7071C19.5196 26.8946 19.2652 27 19 27H17.5C17.1022 27 16.7206 27.158 16.4393 27.4393C16.158 27.7206 16 28.1022 16 28.5C16 28.8978 16.158 29.2794 16.4393 29.5607C16.7206 29.842 17.1022 30 17.5 30H30.5C30.8978 30 31.2794 29.842 31.5607 29.5607C31.842 29.2794 32 28.8978 32 28.5C32 28.1022 31.842 27.7206 31.5607 27.4393C31.2794 27.158 30.8978 27 30.5 27H22C21.7348 27 21.4804 26.8946 21.2929 26.7071C21.1054 26.5196 21 26.2652 21 26C21 25.7348 21.1054 25.4804 21.2929 25.2929C21.4804 25.1054 21.7348 25 22 25H30.5C31.4283 25 32.3185 25.3687 32.9749 26.0251C33.6313 26.6815 34 27.5717 34 28.5C34 29.4283 33.6313 30.3185 32.9749 30.9749C32.3185 31.6313 31.4283 32 30.5 32H17.5C16.5717 32 15.6815 31.6313 15.0251 30.9749C14.3687 30.3185 14 29.4283 14 28.5ZM20.5 24H27.5C28.4283 24 29.3185 23.6313 29.9749 22.9749C30.6313 22.3185 31 21.4283 31 20.5C31 19.5717 30.6313 18.6815 29.9749 18.0251C29.3185 17.3687 28.4283 17 27.5 17H20.5C19.5717 17 18.6815 17.3687 18.0251 18.0251C17.3687 18.6815 17 19.5717 17 20.5C17 21.4283 17.3687 22.3185 18.0251 22.9749C18.6815 23.6313 19.5717 24 20.5 24ZM20.5 19H27.5C27.8978 19 28.2794 19.158 28.5607 19.4393C28.842 19.7206 29 20.1022 29 20.5C29 20.8978 28.842 21.2794 28.5607 21.5607C28.2794 21.842 27.8978 22 27.5 22H20.5C20.1022 22 19.7206 21.842 19.4393 21.5607C19.158 21.2794 19 20.8978 19 20.5C19 20.1022 19.158 19.7206 19.4393 19.4393C19.7206 19.158 20.1022 19 20.5 19ZM23 16H25C25.5304 16 26.0391 15.7893 26.4142 15.4142C26.7893 15.0391 27 14.5304 27 14V12C27 11.4696 26.7893 10.9609 26.4142 10.5858C26.0391 10.2107 25.5304 10 25 10H23C22.4696 10 21.9609 10.2107 21.5858 10.5858C21.2107 10.9609 21 11.4696 21 12V14C21 14.5304 21.2107 15.0391 21.5858 15.4142C21.9609 15.7893 22.4696 16 23 16ZM23 12H25V14H23V12Z" fill="black"/>
<defs>
<linearGradient id="paint0_linear_14_120" x1="24" y1="0" x2="24" y2="47" gradientUnits="userSpaceOnUse">
<stop stop-color="#81EE92"/>
<stop offset="0.0001" stop-color="#7AF28D"/>
<stop offset="1" stop-color="#22B342"/>
</linearGradient>
</defs>
</svg>
